<svg xmlns="http://www.w3.org/2000/svg" xml:space="preserve" width="512" height="512"><defs><linearGradient id="a" x1="256" x2="256" y1="10.25" y2="501.76" gradientUnits="userSpaceOnUse"><stop offset="0" stop-color="#4a90e2"/><stop offset="1" stop-color="#67d5d7"/></linearGradient><linearGradient id="b" x1="256" x2="256" y1="512" gradientUnits="userSpaceOnUse"><stop offset="0" stop-color="#fff" stop-opacity=".8"/><stop offset="1" stop-color="#fff" stop-opacity=".4"/></linearGradient></defs><circle cx="256" cy="256" r="256" style="fill:url(#a)"/><path d="M256 80c-48.6 0-88 39.4-88 88v40c0 13.3 10.7 24 24 24h128c13.3 0 24-10.7 24-24v-40c0-48.6-39.4-88-88-88zm0 240c-48.6 0-88 39.4-88 88s39.4 88 88 88 88-39.4 88-88-39.4-88-88-88zm0 128c-22.1 0-40-17.9-40-40s17.9-40 40-40 40 17.9 40 40-17.9 40-40 40z" style="fill:url(#b)"/><ellipse cx="256" cy="168" opacity=".6" rx="32" ry="48" style="fill:#fff"/><circle cx="256" cy="408" r="24" opacity=".9" style="fill:#fff"/></svg>