<?xml version="1.0" encoding="UTF-8"?>
<svg version="1.1" xmlns="http://www.w3.org/2000/svg" width="500" height="500">
<path d="M0 0 C165 0 330 0 500 0 C500 165 500 330 500 500 C335 500 170 500 0 500 C0 335 0 170 0 0 Z " fill="#FEFEFE" transform="translate(0,0)"/>
<path d="M0 0 C1.1240625 0.37382812 2.248125 0.74765625 3.40625 1.1328125 C11.27477739 4.07377199 17.42385391 7.97477174 22 15.125 C23 18 23 18 23 23 C7.655 23.495 7.655 23.495 -8 24 C-8 24.66 -8 25.32 -8 26 C-6.700625 26.12375 -5.40125 26.2475 -4.0625 26.375 C16.71214789 28.71214789 16.71214789 28.71214789 22 34 C20.48068505 35.51931495 18.95031396 35.33760648 16.8359375 35.578125 C-7.50266203 38.39828974 -7.50266203 38.39828974 -27.78515625 50.92578125 C-31.87742519 57.16107682 -31.90674395 63.77902088 -31 71 C-29.50465947 77.59111261 -27.49735247 83.22786526 -24 89 C-24 89.66 -24 90.32 -24 91 C-29.61 91 -35.22 91 -41 91 C-39.948125 92.11375 -38.89625 93.2275 -37.8125 94.375 C-33.54274539 99.24356166 -29 105.31346839 -29 112 C-29.66644531 111.95359375 -30.33289063 111.9071875 -31.01953125 111.859375 C-41.40086793 111.45283314 -49.93576017 114.16356089 -57.93359375 120.90234375 C-68.12390064 131.24675736 -71.35790585 143.94781469 -71.5 158.0625 C-71.37375926 170.56874945 -69.16000763 180.92689947 -60 190 C-50.5892315 197.78513654 -42.17563019 200.0341271 -30.02441406 199.26025391 C-24.95160177 198.6081051 -20.47685059 196.35248518 -16 194 C-14.66666667 193.33333333 -13.33333333 192.66666667 -12 192 C-14.73518703 196.78657731 -17.36641351 200.91094234 -22 204 C-18.7 203.67 -15.4 203.34 -12 203 C-16.64549987 209.50369982 -22.78570252 213.98275578 -30.625 215.875 C-31.40875 215.91625 -32.1925 215.9575 -33 216 C-33 216.66 -33 217.32 -33 218 C-29.07561214 219.66489182 -25.10899581 220.87204037 -21 222 C-21 222.33 -21 222.66 -21 223 C-36.48129168 226.71311445 -56.69143606 224.3737313 -70.52734375 216.58984375 C-78.89146213 211.21196669 -86.65301843 203.53125207 -90 194 C-88.88625 193.01 -88.88625 193.01 -87.75 192 C-79.13375501 183.26205663 -77.50187683 170.11543474 -77.57641602 158.36962891 C-77.94415121 147.26776567 -81.42777288 136.57222712 -89.375 128.625 C-92.57010178 126.64707985 -95.35050458 125.8587048 -99 125 C-99 124.01 -99 123.02 -99 122 C-97.88625 121.525625 -96.7725 121.05125 -95.625 120.5625 C-90.92750233 118.21787902 -87.43955413 114.98248351 -83.625 111.41796875 C-80.18058754 108.24521382 -76.55643793 105.32848431 -72.91796875 102.3828125 C-69.18853461 99.33735758 -65.52128383 96.22223471 -61.85644531 93.09960938 C-59.2200345 90.85873897 -56.57122937 88.64042237 -53.87109375 86.4765625 C-52.90300781 85.70054687 -51.93492187 84.92453125 -50.9375 84.125 C-50.08027344 83.44695312 -49.22304687 82.76890625 -48.33984375 82.0703125 C-42.88583529 77.24456211 -39.349256 71.92133457 -38.828125 64.578125 C-39.12034088 57.85715969 -41.42735165 52.91584933 -46 48 C-57.20575356 38.91058731 -75.86286027 39.36522834 -89.5 39.25 C-91.2096643 39.22174914 -92.91930156 39.19180955 -94.62890625 39.16015625 C-98.75255357 39.08739081 -102.87588458 39.03716574 -107 39 C-105.49663903 27.35429414 -99.13155366 17.5154102 -89.828125 10.3203125 C-64.83004522 -5.86971903 -27.84786353 -9.42637858 0 0 Z " fill="#4C4554" transform="translate(285,194)"/>
<path d="M0 0 C7.02225914 5.69968118 11.657107 11.55247274 14.61328125 20.12109375 C15.05994141 21.28125 15.05994141 21.28125 15.515625 22.46484375 C19.81433452 35.30154314 18.66791476 50.36895622 14.61328125 63.12109375 C14.28328125 63.78109375 13.95328125 64.44109375 13.61328125 65.12109375 C11.6021762 65.44003552 9.57761596 65.67562404 7.55078125 65.87109375 C1.80407713 66.63187187 -1.40386763 67.91070529 -5.5078125 71.9765625 C-7.38671875 73.12109375 -7.38671875 73.12109375 -10.29296875 73.0390625 C-13.82490962 71.991075 -15.67565192 70.65528163 -18.44921875 68.24609375 C-19.39925781 67.43398438 -20.34929687 66.621875 -21.328125 65.78515625 C-21.82586426 65.35106445 -22.32360352 64.91697266 -22.83642578 64.46972656 C-24.95240824 62.62898844 -27.09568163 60.8214413 -29.23901367 59.01269531 C-30.34119311 58.08182811 -31.44160837 57.14886819 -32.5402832 56.21386719 C-36.02706026 53.24873394 -39.5652217 50.35927714 -43.13671875 47.49609375 C-53.46649234 39.04582773 -63.99275109 29.67542031 -65.82421875 15.80859375 C-65.10732204 9.76617858 -62.28759392 5.18490108 -58.19921875 0.74609375 C-42.91599865 -8.08421119 -14.89225457 -9.40463853 0 0 Z " fill="#F6F8F8" transform="translate(323.38671875,240.87890625)"/>
<path d="M0 0 C10.29137142 6.78792583 14.79282683 16.60674101 17.8125 28.375 C21.24323055 46.78179387 20.09519783 66.761513 9.9375 82.9375 C6.28358223 88.0317187 2.55279584 92.29422667 -3.89453125 93.44140625 C-10.19675704 93.56530322 -14.51383264 93.16468527 -19.3203125 88.88671875 C-30.03815273 76.89523383 -32.23913122 61.29331178 -32.3125 45.8125 C-32.333125 44.74773437 -32.35375 43.68296875 -32.375 42.5859375 C-32.43933965 29.33196965 -29.12290069 15.0444319 -20.19140625 4.7890625 C-14.07400518 -0.604775 -7.95644809 -2.76040036 0 0 Z " fill="#70666E" transform="translate(361.0625,309.0625)"/>
<path d="M0 0 C0.65355469 0.4125 1.30710937 0.825 1.98046875 1.25 C3.00720703 1.86875 3.00720703 1.86875 4.0546875 2.5 C11.42913182 7.44438933 17.13508528 15.13095718 19.5390625 23.71875 C21.38844003 34.32402998 20.18548703 43.7863304 14.98046875 53.25 C8.96001685 61.77412145 1.35473587 67.85785669 -8.99609375 69.96484375 C-18.31982189 71.27880544 -25.37640898 69.28588764 -33.26953125 64.125 C-41.20089932 55.8331152 -45.11671892 46.30465442 -45.39453125 34.9375 C-45.15709252 24.61407717 -43.18191663 13.80126071 -37.01953125 5.25 C-27.17111058 -3.52437849 -11.90421612 -6.43229689 0 0 Z " fill="#FAFAFB" transform="translate(264.01953125,321.75)"/>
<path d="M0 0 C0.75587402 -0.01015137 1.51174805 -0.02030273 2.29052734 -0.03076172 C7.43550174 0.05338783 7.43550174 0.05338783 9.93359375 1.96484375 C10.26488281 2.45082031 10.59617187 2.93679687 10.9375 3.4375 C8.9575 4.4275 6.9775 5.4175 4.9375 6.4375 C5.80532104 6.41393433 5.80532104 6.41393433 6.69067383 6.38989258 C34.14329076 5.74256692 34.14329076 5.74256692 42.9375 13.4375 C43.98157848 15.41484674 44.98751731 17.41326363 45.9375 19.4375 C45.11660889 19.49284912 44.29571777 19.54819824 43.44995117 19.60522461 C40.35043497 19.81482528 37.25099955 20.02557642 34.15161133 20.23706055 C32.17209634 20.37179443 30.19249439 20.50524876 28.21289062 20.63867188 C20.77780213 21.14689311 13.35533681 21.71883358 5.9375 22.4375 C11.83035714 14.13392857 11.83035714 14.13392857 15.9375 12.4375 C10.95520224 10.52123163 6.21065333 9.8827885 0.9375 9.4375 C1.5975 9.1075 2.2575 8.7775 2.9375 8.4375 C2.9375 7.7775 2.9375 7.1175 2.9375 6.4375 C2.39480469 6.6540625 1.85210937 6.870625 1.29296875 7.09375 C0.57753906 7.3721875 -0.13789063 7.650625 -0.875 7.9375 C-1.58269531 8.2159375 -2.29039062 8.494375 -3.01953125 8.78125 C-5.0625 9.4375 -5.0625 9.4375 -8.0625 9.4375 C-8.0625 10.0975 -8.0625 10.7575 -8.0625 11.4375 C-7.051875 11.39625 -6.04125 11.355 -5 11.3125 C-0.88173948 11.44323843 2.05580533 12.17000786 5.9375 13.4375 C5.44378906 14.20835937 4.95007813 14.97921875 4.44140625 15.7734375 C3.80074219 16.77632812 3.16007812 17.77921875 2.5 18.8125 C1.86191406 19.81023437 1.22382813 20.80796875 0.56640625 21.8359375 C-1.03149211 24.29580521 -1.03149211 24.29580521 -2.0625 26.4375 C6.5175 26.1075 15.0975 25.7775 23.9375 25.4375 C22.6175 26.4275 21.2975 27.4175 19.9375 28.4375 C19.2775 29.0975 18.6175 29.7575 17.9375 30.4375 C19.9175 30.7675 21.8975 31.0975 23.9375 31.4375 C23.6075 32.0975 23.2775 32.7575 22.9375 33.4375 C19.66647735 34.12415066 16.41089252 34.64771453 13.10351562 35.1171875 C6.99538347 36.10982948 2.85097781 38.25826139 -1.3125 43 C-3.68471473 47.6597075 -4.36646002 52.29046753 -5.0625 57.4375 C-5.46339844 57.05078125 -5.86429687 56.6640625 -6.27734375 56.265625 C-19.3272425 44.31061572 -36.5819701 43.97581321 -53.375 43.75 C-55.09833184 43.71674357 -56.82164021 43.68224659 -58.54492188 43.64648438 C-62.71731589 43.56254933 -66.8896655 43.4953008 -71.0625 43.4375 C-69.55913903 31.79179414 -63.19405366 21.9529102 -53.890625 14.7578125 C-38.32651435 4.67770057 -18.35362891 0.17550774 0 0 Z " fill="#70666E" transform="translate(249.0625,189.5625)"/>
<path d="M0 0 C0.72697561 1.74233825 1.43098244 3.49427345 2.125 5.25 C2.71667969 6.71179688 2.71667969 6.71179688 3.3203125 8.203125 C4 11 4 11 3.3984375 13.0546875 C0.95324073 16.45610647 -2.00202723 19.35924249 -4.90625 22.3671875 C-7.18771128 25.23603993 -7.995961 27.49931046 -9 31 C-10.22624656 33.98308058 -11.50183274 36.941741 -12.78125 39.90234375 C-17.68150629 52.35716183 -18.49230448 68.97924592 -13.31640625 81.53125 C-8.537379 90.49369873 -1.65492003 97.26459839 7.83203125 101.1640625 C18.94321511 104.09599018 29.00466677 102.25232479 39 97 C40.33333333 96.33333333 41.66666667 95.66666667 43 95 C40.26481297 99.78657731 37.63358649 103.91094234 33 107 C37.95 106.505 37.95 106.505 43 106 C38.35450013 112.50369982 32.21429748 116.98275578 24.375 118.875 C23.59125 118.91625 22.8075 118.9575 22 119 C22 119.66 22 120.32 22 121 C25.92438786 122.66489182 29.89100419 123.87204037 34 125 C34 125.33 34 125.66 34 126 C18.51870832 129.71311445 -1.69143606 127.3737313 -15.52734375 119.58984375 C-23.89146213 114.21196669 -31.65301843 106.53125207 -35 97 C-33.88625 96.01 -33.88625 96.01 -32.75 95 C-24.13375501 86.26205663 -22.50187683 73.11543474 -22.57641602 61.36962891 C-22.95514122 49.93597917 -26.72754118 39.22199202 -34.8125 31 C-35.534375 30.34 -36.25625 29.68 -37 29 C-35.96875 28.2575 -34.9375 27.515 -33.875 26.75 C-29.88216643 23.75713533 -26.09071085 20.56789378 -22.3125 17.3125 C-21.71904785 16.80138672 -21.1255957 16.29027344 -20.51416016 15.76367188 C-18.04985074 13.63801522 -15.58804255 11.50949368 -13.12841797 9.37841797 C-11.33946274 7.83107315 -9.54524075 6.29004364 -7.75 4.75 C-7.20126221 4.27216064 -6.65252441 3.79432129 -6.0871582 3.30200195 C-2.22717482 0 -2.22717482 0 0 0 Z " fill="#716870" transform="translate(230,291)"/>
<path d="M0 0 C2.75552346 3.36399867 3.8947555 6.25013292 4.5 10.5625 C3.8944516 14.72564523 2.69823335 16.79129008 0 20 C-2.75 21.875 -2.75 21.875 -5 23 C-3.98679687 23.23783203 -3.98679687 23.23783203 -2.953125 23.48046875 C4.38476726 25.39977294 4.38476726 25.39977294 7.5625 28.5 C10.0348965 32.79982001 10.40295617 36.08393468 10 41 C8.27648612 46.78529818 5.43833544 49.95801251 0.29296875 52.9921875 C-5.94700589 55.73479986 -12.23049379 56.50275304 -18.9375 57.125 C-19.81212891 57.21136719 -20.68675781 57.29773438 -21.58789062 57.38671875 C-23.72470254 57.59689697 -25.86228122 57.79925518 -28 58 C-30.28531902 52.26700142 -30.81164925 46.45597759 -31.5 40.375 C-31.75736919 38.21203119 -32.01646234 36.04926676 -32.27734375 33.88671875 C-32.40093262 32.8611084 -32.52452148 31.83549805 -32.65185547 30.77880859 C-33.39864997 24.81806877 -34.44383668 18.92273413 -35.56640625 13.0234375 C-35.75074219 12.04632813 -35.93507812 11.06921875 -36.125 10.0625 C-36.29257813 9.20785156 -36.46015625 8.35320312 -36.6328125 7.47265625 C-37.00820743 4.94473084 -37.06390676 2.55170569 -37 0 C-8.6765324 -6.89673088 -8.6765324 -6.89673088 0 0 Z " fill="#4E4857" transform="translate(238,85)"/>
<path d="M0 0 C17.39533726 -0.75177928 17.39533726 -0.75177928 23 4 C33.02275913 13.44645048 37.21616641 27.54045755 38 41 C38.07605469 42.11503906 38.15210938 43.23007812 38.23046875 44.37890625 C38.82363183 60.52256083 35.24515383 76.54823829 24.4375 88.9375 C19.21067889 93.36019478 15.51132222 94.42532758 8.6875 94.1875 C7.57665039 94.16719727 7.57665039 94.16719727 6.44335938 94.14648438 C4.62858925 94.11135979 2.81419712 94.05755972 1 94 C2.375 92 2.375 92 4 90 C4.66 90 5.32 90 6 90 C6.40412109 88.93652344 6.40412109 88.93652344 6.81640625 87.8515625 C8.03333355 84.91969145 9.45209421 82.1795066 10.9375 79.375 C15.17551669 70.95064975 17.49823846 62.41183018 18 53 C18.05285156 52.04738281 18.10570312 51.09476562 18.16015625 50.11328125 C18.62384114 33.72302841 15.14429218 16.54089146 4 4 C2.67735658 2.65606178 1.34629837 1.32024098 0 0 Z " fill="#484151" transform="translate(155,308)"/>
<path d="M0 0 C8.18913921 4.4095365 11.75005496 13.89307069 14.37890625 22.3359375 C16.05257026 28.62632686 17.09002081 34.81569213 17.4375 41.3125 C17.49035156 42.07691406 17.54320312 42.84132813 17.59765625 43.62890625 C18.13600325 57.83658576 14.32166668 74.17278597 4.875 85 C1.5513698 88.51947669 -1.07300137 90.92223206 -5.9296875 91.68359375 C-10.37604156 91.8013321 -12.978597 91.63689055 -16.9375 89.4375 C-21.05383325 85.34455501 -23.4566004 79.24510422 -23.6640625 73.5 C-23.63054687 72.778125 -23.59703125 72.05625 -23.5625 71.3125 C-22.46550781 71.29832031 -21.36851562 71.28414063 -20.23828125 71.26953125 C-18.78381302 71.22261292 -17.32938723 71.17436562 -15.875 71.125 C-15.15376953 71.11919922 -14.43253906 71.11339844 -13.68945312 71.10742188 C-9.62497212 70.94038841 -7.96881331 70.63666856 -4.68359375 68.015625 C-2.92690248 65.77689506 -1.51467672 63.81226648 -0.3125 61.25 C0.00203125 60.59902344 0.3165625 59.94804687 0.640625 59.27734375 C4.19282374 50.51873607 3.75282305 37.9788321 0.875 29.0625 C-1.21344787 24.28260171 -3.93164336 20.81047246 -8.5625 18.3125 C-11.00722541 17.60857128 -12.99443901 17.41731882 -15.5625 17.3125 C-13.89583333 15.64583333 -12.22916667 13.97916667 -10.5625 12.3125 C-12.8725 11.9825 -15.1825 11.6525 -17.5625 11.3125 C-16.18119357 8.54988714 -14.2826354 8.39501229 -11.53125 7.3125 C-9.29007162 6.17412368 -7.75845794 4.78761805 -5.9375 3.0625 C-2.8874876 0.35213263 -2.8874876 0.35213263 0 0 Z " fill="#726870" transform="translate(153.5625,310.6875)"/>
<path d="M0 0 C5.69117607 2.62504152 10.20531342 6.41022216 12.69140625 12.265625 C14.11904513 20.6488533 10.863176 28.48254221 6.75390625 35.640625 C1.8095987 41.93338007 -3.25256126 46.6589011 -11.43359375 47.640625 C-17.83276723 47.02135015 -22.37157601 43.8729376 -27.24609375 39.828125 C-30.26663202 36.07533502 -31.08606505 32.85511571 -31.74609375 28.140625 C-30.57712375 17.78689068 -25.00860116 8.02365641 -17.12109375 1.265625 C-11.96184467 -2.10158402 -5.72021953 -1.8196299 0 0 Z " fill="#FCFCFD" transform="translate(343.30859375,107.734375)"/>
<path d="M0 0 C10.84688927 -0.40760753 18.77118062 0.46314952 27 8 C35.76897406 17.47997195 36.3891125 29.02447022 36.1875 41.3984375 C35.58512493 52.96905869 35.58512493 52.96905869 32 57.5625 C28.19702185 60.29589054 25.70383151 60.53107775 21 60 C18.00745967 58.39872842 15.56499304 56.20698908 13 54 C11.92699039 53.10791862 10.85267455 52.217407 9.77734375 51.328125 C4.64937227 47.05915749 -0.33952675 42.7815245 -5 38 C-3.96875 38.061875 -2.9375 38.12375 -1.875 38.1875 C2.23468973 37.98864405 4.48882496 37.05532197 8 35 C7.57847656 34.51789063 7.15695312 34.03578125 6.72265625 33.5390625 C6.17480469 32.90742188 5.62695312 32.27578125 5.0625 31.625 C4.51722656 30.99851562 3.97195313 30.37203125 3.41015625 29.7265625 C2 28 2 28 1 26 C1.78375 26.165 2.5675 26.33 3.375 26.5 C5.88208039 27.0623707 5.88208039 27.0623707 8 27 C4.04 23.7 0.08 20.4 -4 17 C-0.62899267 15.31449633 2.72014632 17.31136964 6.125 18.4375 C6.87910156 18.68048828 7.63320313 18.92347656 8.41015625 19.17382812 C10.27557879 19.77595819 12.13807683 20.38713463 14 21 C13.46890625 20.69449219 12.9378125 20.38898438 12.390625 20.07421875 C6.72318353 16.40279225 4.71582217 13.01447209 2.7890625 6.5859375 C2.06549444 4.2146402 1.17478424 2.17590472 0 0 Z " fill="#098588" transform="translate(295,245)"/>
<path d="M0 0 C7.02225914 5.69968118 11.657107 11.55247274 14.61328125 20.12109375 C15.05994141 21.28125 15.05994141 21.28125 15.515625 22.46484375 C19.7755998 35.18587448 18.79966488 50.49686954 14.61328125 63.12109375 C13.61328125 64.12109375 13.61328125 64.12109375 11.765625 64.21875 C9.71484375 64.18619792 7.6640625 64.15364583 5.61328125 64.12109375 C5.90203125 63.50234375 6.19078125 62.88359375 6.48828125 62.24609375 C11.45851155 48.43989846 11.51348189 32.60726664 5.61328125 19.12109375 C2.24011865 12.41468764 -1.70743135 8.4877791 -8.38671875 5.12109375 C-8.96083496 4.77723633 -9.53495117 4.43337891 -10.12646484 4.07910156 C-14.97727859 2.02308589 -20.69966701 2.79519744 -25.88671875 2.80859375 C-27.10359375 2.79248047 -28.32046875 2.77636719 -29.57421875 2.75976562 C-39.55684473 2.75443303 -50.52299402 3.29206964 -58.38671875 10.12109375 C-60.6783029 13.84394036 -60.71775343 16.58402346 -60.1015625 20.828125 C-58.77233077 25.09183552 -55.76174683 27.36511844 -52.38671875 30.12109375 C-51.54238281 30.83136719 -50.69804687 31.54164063 -49.828125 32.2734375 C-46.24135364 35.24969459 -42.60339777 38.15788952 -38.94921875 41.05078125 C-34.62048364 44.48244296 -30.3738849 47.97829957 -26.20629883 51.60302734 C-15.14491036 61.99608476 -15.14491036 61.99608476 -1.38671875 67.12109375 C-4.56621731 70.66396357 -6.53453696 72.8543319 -11.38671875 73.12109375 C-19.64350037 68.95182778 -26.82398656 61.38039601 -33.73828125 55.296875 C-36.8474645 52.56964932 -40.03139848 49.95444512 -43.26171875 47.37109375 C-53.56728326 38.97963855 -64.00184017 29.60660299 -65.82421875 15.80859375 C-65.10732204 9.76617858 -62.28759392 5.18490108 -58.19921875 0.74609375 C-42.91599865 -8.08421119 -14.89225457 -9.40463853 0 0 Z " fill="#756C74" transform="translate(323.38671875,240.87890625)"/>
<path d="M0 0 C0.65355469 0.4125 1.30710937 0.825 1.98046875 1.25 C3.00720703 1.86875 3.00720703 1.86875 4.0546875 2.5 C11.42913182 7.44438933 17.13508528 15.13095718 19.5390625 23.71875 C21.38844003 34.32402998 20.18548703 43.7863304 14.98046875 53.25 C8.96001685 61.77412145 1.35473587 67.85785669 -8.99609375 69.96484375 C-18.31982189 71.27880544 -25.37640898 69.28588764 -33.26953125 64.125 C-41.20089932 55.8331152 -45.11671892 46.30465442 -45.39453125 34.9375 C-45.15709252 24.61407717 -43.18191663 13.80126071 -37.01953125 5.25 C-27.17111058 -3.52437849 -11.90421612 -6.43229689 0 0 Z M-35.01953125 15.25 C-40.5516803 23.24961325 -41.94478542 29.44876104 -41.01953125 39.25 C-38.90350092 47.54602544 -35.24023577 53.56241786 -28.01953125 58.25 C-21.21652027 62.25400367 -14.7289461 62.22466177 -7.01953125 61.25 C0.94426003 58.31432792 7.29311094 52.38678946 10.85546875 44.6875 C13.36172762 36.91205833 13.29822113 28.08502 9.79296875 20.6875 C5.50207204 13.35222405 -0.52814484 8.99569321 -8.01953125 5.25 C-19.41407402 4.10564133 -27.53065719 6.30495599 -35.01953125 15.25 Z " fill="#4C4555" transform="translate(264.01953125,321.75)"/>
<path d="M0 0 C13.64836889 -0.44613312 26.91398213 -0.38781132 38.875 7.1875 C40.39824388 9.64161515 40.46010122 12.02715103 40.59375 14.8671875 C39.67520734 18.16668943 37.49967351 19.72438686 35 22 C34.17242187 22.77859375 33.34484375 23.5571875 32.4921875 24.359375 C27.11149308 29.27427797 21.6328185 33.99933479 15.9609375 38.57421875 C12.52663497 41.38780961 9.16998255 44.28316363 5.8125 47.1875 C-9.71082565 60.58169645 -9.71082565 60.58169645 -18 60 C-19.9375 58.5 -19.9375 58.5 -21 57 C-19.80375 56.7525 -18.6075 56.505 -17.375 56.25 C-9.51840046 54.23052195 -5.28710064 49.60137621 -1 43 C0.05591918 41.02895087 1.08239669 39.03911848 2 37 C1.31292969 37.30035156 0.62585938 37.60070312 -0.08203125 37.91015625 C-0.98308594 38.29042969 -1.88414062 38.67070312 -2.8125 39.0625 C-3.70582031 39.44535156 -4.59914062 39.82820313 -5.51953125 40.22265625 C-8 41 -8 41 -11 40 C-7.37 37.36 -3.74 34.72 0 32 C-2.64 32.66 -5.28 33.32 -8 34 C-7.96691359 32.228373 -7.89743679 30.45739906 -7.8125 28.6875 C-7.77769531 27.70136719 -7.74289063 26.71523438 -7.70703125 25.69921875 C-7 23 -7 23 -4.84375 21.3125 C-1.81296633 19.91367677 1.22001274 18.56988493 4.3125 17.3125 C5.38113281 16.87550781 6.44976562 16.43851562 7.55078125 15.98828125 C8.35902344 15.66214844 9.16726562 15.33601563 10 15 C8.00255949 8.40016199 4.86371374 4.80699405 0 0 Z " fill="#0B8689" transform="translate(194,245)"/>
<path d="M0 0 C5.49775355 3.17374972 9.31571248 7.74566439 11.375 13.73046875 C13.80695471 26.45263182 13.2807864 39.0788204 6 50 C2.64893225 53.35106775 0.84384042 53.90623995 -3.9375 54.4375 C-7.29493713 54.34406483 -7.93370883 54.051225 -10.75 51.875 C-19.08530623 41.22433093 -20.22286299 31.12743415 -19 18 C-17.5111302 11.18165307 -14.08878777 5.75438172 -9 1 C-5.73952371 -0.63023814 -3.62198965 -0.4673535 0 0 Z " fill="#FCFBFC" transform="translate(361,328)"/>
<path d="M0 0 C1.20720703 -0.01160156 2.41441406 -0.02320313 3.65820312 -0.03515625 C14.13439664 -0.00116103 27.5327412 1.48496898 35.78515625 8.7890625 C40.17422733 13.77955149 41.76936701 18.51460592 41.54296875 25.05859375 C39.74160801 36.79713129 24.71097518 46.06660043 16.09375 53 C13.38483137 55.21373996 10.73332283 57.47816111 8.09130859 59.77050781 C2.86886353 64.29767814 -2.39820359 68.76577594 -7.8125 73.0625 C-9.3284375 74.27486328 -9.3284375 74.27486328 -10.875 75.51171875 C-14.03491019 77.51607668 -16.08234935 78.26710308 -19.8125 78.375 C-22.35793797 77.08656844 -23.75865548 75.42884452 -25.8125 73.375 C-25.8125 73.045 -25.8125 72.715 -25.8125 72.375 C-24.678125 72.189375 -23.54375 72.00375 -22.375 71.8125 C-16.77213747 70.37511642 -13.12768793 67.09588061 -8.8125 63.375 C-7.71383898 62.4371516 -6.61485962 61.49967603 -5.515625 60.5625 C-3.10241268 58.4999852 -0.69640685 56.42935895 1.70703125 54.35546875 C4.68437998 51.79450968 7.70282462 49.29027618 10.75 46.8125 C12.56256057 45.33340755 14.37505685 43.85423633 16.1875 42.375 C16.73889648 41.92737305 17.29029297 41.47974609 17.85839844 41.01855469 C19.6207853 39.58300692 21.37350643 38.13630875 23.125 36.6875 C23.66906494 36.24784912 24.21312988 35.80819824 24.77368164 35.35522461 C29.11308394 31.74097262 32.80546578 28.04923953 33.625 22.3125 C33.09926286 18.78255066 32.49751745 17.11814572 30.1875 14.375 C21.03293717 7.89051799 8.88761319 7.99411223 -1.875 7.9375 C-2.98166016 7.90462891 -4.08832031 7.87175781 -5.22851562 7.83789062 C-13.7611523 7.78245117 -20.41356553 9.51480401 -26.92358398 15.22753906 C-35.82299866 24.17006509 -37.03257618 36.45430002 -37.07006836 48.41430664 C-36.99867728 54.76296764 -35.99530881 60.39206809 -33.8125 66.375 C-33.4825 67.365 -33.1525 68.355 -32.8125 69.375 C-33.8025 69.375 -34.7925 69.375 -35.8125 69.375 C-36.29759793 68.00208132 -36.77525513 66.62653297 -37.25 65.25 C-37.51683594 64.48429687 -37.78367188 63.71859375 -38.05859375 62.9296875 C-42.29667366 48.56852552 -40.95189678 32.00351582 -34.4921875 18.64453125 C-30.24049585 10.96592966 -24.84026797 3.90558092 -16.31054688 0.9440918 C-10.94767191 -0.27764995 -5.47155633 -0.0520825 0 0 Z " fill="#4C4554" transform="translate(202.8125,235.625)"/>
<path d="M0 0 C5.47126942 0.13678174 8.28271795 2.39458996 12.11328125 5.984375 C24.27696333 18.97911611 25.64807912 36.61162644 25.31640625 53.53125 C24.76965733 66.74473007 20.31779277 79.47630211 11.625 89.52734375 C6.68668807 94.00268893 2.51822527 94.64062812 -3.9765625 94.48828125 C-8.63203457 93.73642853 -11.97974089 91.60776157 -15 88 C-15.70703125 85.796875 -15.70703125 85.796875 -16 84 C-15.01 84.33 -14.02 84.66 -13 85 C-11.29367352 85.09267588 -9.58383413 85.12998202 -7.875 85.125 C-6.98554688 85.12757813 -6.09609375 85.13015625 -5.1796875 85.1328125 C-3.02208912 85.24301985 -3.02208912 85.24301985 -2 84 C-2.94875 83.4225 -3.8975 82.845 -4.875 82.25 C-7.88700827 80.08135405 -8.60379265 79.22618785 -10 76 C-8.98679687 75.90203125 -7.97359375 75.8040625 -6.9296875 75.703125 C-5.57802945 75.55294077 -4.22647183 75.40185077 -2.875 75.25 C-2.20984375 75.188125 -1.5446875 75.12625 -0.859375 75.0625 C4.05690208 74.48411446 7.206105 73.16434037 11 70 C12.70328225 67.58425114 12.70328225 67.58425114 13.8125 64.9375 C14.21082031 64.08027344 14.60914063 63.22304688 15.01953125 62.33984375 C18.73368015 53.47619757 18.6864725 40.16380812 15.4375 31.125 C13.27551296 26.77794421 10.17716733 23.48248322 6 21 C3.86936168 20.33617112 3.86936168 20.33617112 2 20 C1.66127487 18.58461283 1.32925376 17.16762037 1 15.75 C0.814375 14.96109375 0.62875 14.1721875 0.4375 13.359375 C0 11 0 11 0 7 C2.475 7.495 2.475 7.495 5 8 C4.360625 7.05125 3.72125 6.1025 3.0625 5.125 C1 2 1 2 0 0 Z " fill="#4A4353" transform="translate(355,308)"/>
<path d="M0 0 C2.73751882 1.0037569 3.80951376 1.6527768 5.23336792 4.24821472 C6.18602012 7.66770937 5.68249901 9.06477103 4.39111328 12.34106445 C3.99054718 13.3817659 3.58998108 14.42246735 3.17727661 15.4947052 C2.72947845 16.6063353 2.2816803 17.71796539 1.8203125 18.86328125 C1.37356171 20.01040085 0.92681091 21.15752045 0.46652222 22.33940125 C-0.72147106 25.38077435 -1.92402049 28.41583599 -3.13391113 31.44854736 C-4.36600309 34.54744838 -5.5783455 37.65397602 -6.79296875 40.75976562 C-9.17747247 46.84698402 -11.58132637 52.92628365 -14 59 C-11.63947765 57.42631843 -9.35802305 55.8136168 -7.078125 54.12890625 C-6.30662109 53.55930176 -5.53511719 52.98969727 -4.74023438 52.40283203 C-3.91845703 51.79552246 -3.09667969 51.18821289 -2.25 50.5625 C-1.40759766 49.9422998 -0.56519531 49.32209961 0.30273438 48.68310547 C4.37692232 45.68281197 8.44269362 42.67287697 12.484375 39.62890625 C13.5057959 38.86501587 13.5057959 38.86501587 14.54785156 38.08569336 C15.82499931 37.13006868 17.09798264 36.16884658 18.36621094 35.20141602 C22.66228902 32 22.66228902 32 26 32 C26.99 34.475 26.99 34.475 28 37 C20.90930688 42.84900493 13.54713816 48.24177222 6.04785156 53.54492188 C2.1412666 56.32070232 -1.74079068 59.13053962 -5.625 61.9375 C-6.39521484 62.49332764 -7.16542969 63.04915527 -7.95898438 63.62182617 C-8.68666016 64.14752197 -9.41433594 64.67321777 -10.1640625 65.21484375 C-10.80811035 65.68011475 -11.4521582 66.14538574 -12.11572266 66.62475586 C-13.4697619 67.61300451 -14.80040154 68.63361272 -16.11474609 69.67407227 C-18 71 -18 71 -20 71 C-22.30758716 68.17961569 -23.036771 66.62415644 -22.82055664 62.95410156 C-21.98017931 57.99908853 -20.04173739 53.44311439 -18.18359375 48.796875 C-17.80767593 47.83726868 -17.43175812 46.87766235 -17.04444885 45.88897705 C-15.84922063 42.83980671 -14.64423231 39.79463401 -13.4375 36.75 C-12.22807276 33.69076161 -11.02089203 30.63071279 -9.81983948 27.56817627 C-9.07375 25.66638704 -8.32271252 23.76653007 -7.56626892 21.86883545 C-7.06058128 20.58169647 -7.06058128 20.58169647 -6.54467773 19.26855469 C-6.24569077 18.51467468 -5.9467038 17.76079468 -5.63865662 16.98406982 C-4.84679542 14.87143773 -4.84679542 14.87143773 -5 12 C-6.01835937 12.78761719 -7.03671875 13.57523438 -8.0859375 14.38671875 C-15.94261045 20.44184966 -23.84987682 26.41943872 -31.875 32.25 C-32.64118652 32.81033936 -33.40737305 33.37067871 -34.19677734 33.94799805 C-35.27113037 34.72397339 -35.27113037 34.72397339 -36.3671875 35.515625 C-36.99737793 35.97227539 -37.62756836 36.42892578 -38.27685547 36.89941406 C-40 38 -40 38 -43 39 C-46 35.25 -46 35.25 -46 33 C-44.2613167 31.65758904 -42.45372969 30.40439544 -40.625 29.1875 C-39.42586271 28.37810753 -38.22801732 27.56679885 -37.03125 26.75390625 C-36.3815625 26.31320801 -35.731875 25.87250977 -35.0625 25.41845703 C-31.37321936 22.88120318 -27.75054441 20.25216109 -24.125 17.625 C-23.36993164 17.0784375 -22.61486328 16.531875 -21.83691406 15.96875 C-14.53590734 10.67590931 -7.26269038 5.34525443 0 0 Z " fill="#4C4555" transform="translate(402,147)"/>
<path d="M0 0 C0.96679688 0.00902344 1.93359375 0.01804688 2.9296875 0.02734375 C3.65414062 0.03894531 4.37859375 0.05054688 5.125 0.0625 C4.795 2.0425 4.465 4.0225 4.125 6.0625 C-2.92953001 7.26693195 -9.70937211 8.34350502 -16.875 8.0625 C-16.978125 8.97 -17.08125 9.8775 -17.1875 10.8125 C-17.82009182 15.37088221 -19.04991888 19.75956956 -20.25390625 24.1953125 C-21.20572613 28.12217474 -21.20572613 28.12217474 -20.875 32.0625 C-18.77214422 34.17976691 -16.36804193 35.75067249 -13.875 37.375 C-13.20726562 37.82939453 -12.53953125 38.28378906 -11.8515625 38.75195312 C-10.20292342 39.8706725 -8.54023065 40.96863038 -6.875 42.0625 C-7.205 44.3725 -7.535 46.6825 -7.875 49.0625 C-12.13422824 47.61684954 -15.12474103 45.48952078 -18.625 42.6875 C-23.70107543 38.68344108 -28.88481246 34.88575358 -34.1875 31.1875 C-42.56290096 25.33628413 -50.73779122 19.23933143 -58.875 13.0625 C-58.545 10.7525 -58.215 8.4425 -57.875 6.0625 C-57.03054825 5.97187035 -57.03054825 5.97187035 -56.16903687 5.87940979 C-50.2962206 5.24877056 -44.42367138 4.61568754 -38.55126953 3.98120117 C-36.36123261 3.74490004 -34.17112893 3.50921675 -31.98095703 3.27416992 C-28.82827172 2.93571778 -25.67583517 2.5950259 -22.5234375 2.25390625 C-21.54821136 2.14969864 -20.57298523 2.04549103 -19.56820679 1.93812561 C-1.55793 -0.01899915 -1.55793 -0.01899915 0 0 Z " fill="#10898B" transform="translate(107.875,224.9375)"/>
<path d="M0 0 C2.375 1.6875 2.375 1.6875 5 4 C6.61087935 4.79992296 8.23782248 5.5678801 9.875 6.3125 C18.89297919 10.74121085 24.18747102 17.73002026 28 27 C27.67 27.66 27.34 28.32 27 29 C26.46632813 28.33613281 25.93265625 27.67226563 25.3828125 26.98828125 C20.18813039 20.83195383 15.50035167 16.9750873 8 14 C8 14.66 8 15.32 8 16 C7.23236328 15.76216797 7.23236328 15.76216797 6.44921875 15.51953125 C-2.73744596 13.5708448 -11.8962743 14.24038818 -20 19 C-20.9075 19.37125 -21.815 19.7425 -22.75 20.125 C-30.26013812 26.38344843 -32.4529705 38.39745613 -33.35546875 47.640625 C-33.81289187 59.65725406 -30.69031396 69.91941352 -22.8984375 79.19140625 C-17.19527877 84.6246624 -10.17993353 86.30243756 -2.50390625 86.2265625 C1.86512258 85.83123696 5.87456403 84.43098879 10 83 C11.19625 82.608125 12.3925 82.21625 13.625 81.8125 C14.800625 81.4103125 14.800625 81.4103125 16 81 C16 81.99 16 82.98 16 84 C6.10690269 89.24633948 -3.73475831 91.03047845 -14.703125 88.3359375 C-24.53120069 84.38408889 -32.40169704 76.89394492 -37.25390625 67.59765625 C-42.72865618 54.301835 -41.74316755 37.42940095 -36.54296875 24.203125 C-31.42294803 13.57422123 -24.53032565 5.96587616 -13.4375 1.5625 C-8.68564788 0.02728624 -4.96385114 -0.68466912 0 0 Z " fill="#F5F5F5" transform="translate(253,305)"/>
<path d="M0 0 C5.84352483 4.14642578 11.13975263 8.87931801 13 16 C14.59937954 28.15528448 10.24097213 37.49622408 3 47 C-1.01423329 51.63180764 -6.96208609 56.57895257 -13.28515625 57.23828125 C-23.67105959 57.51582297 -31.35611958 54.00400808 -39 47 C-44.40873964 40.54390326 -45.03615777 33.29438152 -44.36425781 25.15087891 C-42.92298396 16.640408 -37.35691638 6.88274353 -30.8359375 1.26171875 C-20.83726574 -5.60970887 -10.6019138 -6.00044724 0 0 Z M-29.68359375 11.05078125 C-34.64958016 18.02297664 -39.15752107 26.23591191 -38 35 C-35.77999659 42.44354086 -31.34415215 45.90990491 -25 49.875 C-20.01908655 51.74284254 -16.3949171 51.4569556 -11.375 49.8125 C-7.82319878 47.9050512 -5.65491162 46.01368346 -3 43 C-2.319375 42.2575 -1.63875 41.515 -0.9375 40.75 C4.28188177 33.34184523 7.05848562 25.06615946 6 16 C4.27330699 10.46798355 0.78817326 7.77740561 -4.09765625 4.9453125 C-14.13571145 -0.04279706 -22.89258453 2.77867025 -29.68359375 11.05078125 Z " fill="#4D4756" transform="translate(350,104)"/>
<path d="M0 0 C-3 6 -6 12 -9 18 C-9.33 18 -9.66 18 -10 18 C-10.495 14.04 -10.495 14.04 -11 10 C-11.99 12.64 -12.98 15.28 -14 18 C-15.33333333 15.33333333 -16.66666667 12.66666667 -18 10 C-18.99 12.97 -19.98 15.94 -21 19 C-22.3509375 19.12117188 -23.701875 19.24234375 -25.09375 19.3671875 C-26.89586361 19.53613565 -28.6979453 19.70542463 -30.5 19.875 C-31.386875 19.95363281 -32.27375 20.03226563 -33.1875 20.11328125 C-38.64875567 20.63531304 -43.70063371 21.5930886 -49 23 C-52 23.125 -52 23.125 -54 23 C-54.36549722 17.27387683 -53.87064021 12.08034265 -51 7 C-37.4628392 -3.08651197 -15.79542132 -0.33802756 0 0 Z " fill="#474050" transform="translate(244,205)"/>
<path d="M0 0 C1.37562854 1.28965176 2.70766393 2.62689293 4 4 C4 4.66 4 5.32 4 6 C2.42578125 7.2265625 2.42578125 7.2265625 0.3125 8.625 C-3.95013679 11.75750711 -7.20901193 14.92857969 -9 20 C-9.09706175 23.1205351 -8.70941596 25.96566637 -8 29 C-3.11043897 30.62985368 1.07729724 31.37470999 5.85302734 29.12841797 C10.37616373 26.64129957 14.68199418 23.82351678 19 21 C22.48510833 19.25744584 26.18954071 19.55648752 30 20 C33.96125704 21.34867701 36.62585835 23.58748484 39.4375 26.6875 C42.02123492 32.16501802 41.98288149 36.21825994 39.96484375 41.9296875 C36.78757592 48.88604549 32.55056634 55.77346068 26 60 C23.22265625 59.73046875 23.22265625 59.73046875 21 59 C21 55 21 55 22.3203125 53.6484375 C22.91585937 53.22820312 23.51140625 52.80796875 24.125 52.375 C29.48081391 48.07725931 33.28490603 42.44545278 34.6875 35.6875 C33.70061775 31.82968757 32.20988828 30.32204684 29 28 C21.55229534 26.94134871 16.92717977 30.5998586 10.93554688 34.4453125 C5.28682921 37.85108542 0.59593508 39.02384883 -6 38 C-10.34468141 35.8276593 -13.60032162 33.24558482 -16 29 C-17.16018089 22.14546191 -15.84473384 16.70776845 -12 11 C-8.57250594 6.29200956 -4.99738482 2.97463382 0 0 Z " fill="#0F888B" transform="translate(93,154)"/>
<path d="M0 0 C8.6657759 5.47254208 14.35722382 12.40952556 17.6875 22.0625 C18.13416016 23.22265625 18.13416016 23.22265625 18.58984375 24.40625 C22.84981855 37.12728073 21.87388363 52.43827579 17.6875 65.0625 C16.6875 66.0625 16.6875 66.0625 14.83984375 66.16015625 C12.7890625 66.12760417 10.73828125 66.09505208 8.6875 66.0625 C8.97625 65.44375 9.265 64.825 9.5625 64.1875 C14.5327303 50.38130471 14.58770064 34.54867289 8.6875 21.0625 C5.3143374 14.35609389 1.3667874 10.42918535 -5.3125 7.0625 C-5.92722168 6.72331543 -6.54194336 6.38413086 -7.17529297 6.03466797 C-9.3913315 5.0266413 -11.02347501 4.72249929 -13.4375 4.53515625 C-14.2214917 4.4666748 -15.0054834 4.39819336 -15.81323242 4.32763672 C-17.05036987 4.22733154 -17.05036987 4.22733154 -18.3125 4.125 C-25.86936253 3.43348464 -33.02125883 2.24550634 -40.3125 0.0625 C-40.3125 -0.5975 -40.3125 -1.2575 -40.3125 -1.9375 C-28.97291494 -5.71736169 -10.81643414 -5.13543419 0 0 Z " fill="#4B4454" transform="translate(320.3125,238.9375)"/>
<path d="M0 0 C1.21236328 0.02707031 1.21236328 0.02707031 2.44921875 0.0546875 C3.37154297 0.08949219 3.37154297 0.08949219 4.3125 0.125 C3.61125 0.74375 2.91 1.3625 2.1875 2 C-10.61749909 14.94968834 -12.98376228 32.36276792 -13.00439453 49.61132812 C-12.81802439 66.84941595 -8.67785006 81.27819637 3.3125 94.125 C-3.66301762 94.75913797 -7.96418585 93.13244876 -13.6875 89.125 C-15.46875 87.625 -15.46875 87.625 -16.6875 86.125 C-16.375 83.4375 -16.375 83.4375 -15.6875 81.125 C-17.3375 80.795 -18.9875 80.465 -20.6875 80.125 C-20.35935303 79.61557861 -20.03120605 79.10615723 -19.69311523 78.58129883 C-18.31864436 75.22403942 -18.51577354 72.44646895 -18.59765625 68.82421875 C-18.61812086 67.3561237 -18.63829302 65.88802455 -18.65820312 64.41992188 C-18.70116541 62.13418271 -18.7491312 59.84871817 -18.80395508 57.56323242 C-19.01564422 48.04139248 -18.4985586 39.37521982 -16.34155273 30.07739258 C-15.57935536 27.14083068 -15.57935536 27.14083068 -15.6875 24.125 C-17.0075 25.115 -18.3275 26.105 -19.6875 27.125 C-19.26181194 17.75986266 -14.14270069 8.75466558 -7.6875 2.125 C-4.48369983 -0.01086678 -3.66810033 -0.10632175 0 0 Z " fill="#776D75" transform="translate(339.6875,307.875)"/>
<path d="M0 0 C2.47704641 9.7770479 4.88176061 19.57105113 7.25 29.375 C7.52021973 30.48673584 7.79043945 31.59847168 8.06884766 32.74389648 C8.31940918 33.78489502 8.5699707 34.82589355 8.828125 35.8984375 C9.1669873 37.30101807 9.1669873 37.30101807 9.51269531 38.73193359 C10 41 10 41 10 43 C7.03 43.495 7.03 43.495 4 44 C2.68 38.72 1.36 33.44 0 28 C-9.20461325 28.4526859 -17.67529788 30.93381921 -26.51757812 33.3359375 C-30.43601264 34.38414185 -34.36913709 35.36290582 -38.3125 36.3125 C-38.99900635 36.48370361 -39.6855127 36.65490723 -40.39282227 36.83129883 C-44.3399325 37.77173904 -47.94613692 38.16969659 -52 38 C-52.33 36.02 -52.66 34.04 -53 32 C-49.0999327 30.30665868 -45.26704938 29.28889539 -41.1171875 28.37890625 C-40.46227325 28.23347885 -39.80735901 28.08805145 -39.13259888 27.93821716 C-37.04759156 27.47564788 -34.96143025 27.01860448 -32.875 26.5625 C-30.14248617 25.96295432 -27.41071004 25.36020893 -24.6796875 24.75390625 C-24.01886169 24.60772858 -23.35803589 24.4615509 -22.67718506 24.3109436 C-17.8114 23.2198819 -13.01919053 21.9473411 -8.23876953 20.53100586 C-6 20 -6 20 -2 20 C-2.433125 18.31970703 -2.433125 18.31970703 -2.875 16.60546875 C-3.25018691 15.13286011 -3.62517665 13.66020122 -4 12.1875 C-4.28617187 11.08051758 -4.28617187 11.08051758 -4.578125 9.95117188 C-5.35262914 6.89464659 -6 4.16626522 -6 1 C-3.92446352 0.4465236 -2.15634036 0 0 0 Z " fill="#4F4857" transform="translate(446,217)"/>
<path d="M0 0 C2.31 0 4.62 0 7 0 C7 5.28 7 10.56 7 16 C8.32 16.66 9.64 17.32 11 18 C12.96701739 20.691708 13.01175806 22.35274171 13.125 25.75 C13.5752014 30.77724892 16.67219107 33.03346104 20.3828125 36.140625 C20.91648437 36.75421875 21.45015625 37.3678125 22 38 C21.74945653 41.32428408 20.47406364 42.84864032 18 45 C14.73772107 43.60894167 13.08435616 42.04921505 10.875 39.3125 C8.76860183 37.16550744 7.56440121 36.12153501 4.60546875 35.484375 C-0.84517378 35.65182946 -3.76732929 37.23896797 -7.625 41.0625 C-8.77374404 42.35426948 -9.90750602 43.66032162 -11 45 C-12.32 44.34 -13.64 43.68 -15 43 C-15 42.01 -15 41.02 -15 40 C-13.54963524 38.59280086 -12.03951787 37.24656535 -10.5 35.9375 C-7.00120046 32.69828666 -7.00120046 32.69828666 -5.54296875 28.328125 C-5.63711082 26.6081239 -5.76815638 24.88962225 -5.94140625 23.17578125 C-6 21 -6 21 -4.125 18.375 C-2 17 -2 17 0 17 C0 11.39 0 5.78 0 0 Z " fill="#4E4757" transform="translate(247,330)"/>
<path d="M0 0 C0.33 0.66 0.66 1.32 1 2 C2.11375 1.95875 3.2275 1.9175 4.375 1.875 C8 2 8 2 10 4 C10 4.99 10 5.98 10 7 C8.329375 7.309375 8.329375 7.309375 6.625 7.625 C-1.21103179 9.65347631 -7.30525021 13.194176 -11.5625 20.1875 C-15.75431753 27.91801901 -16.37684891 35.76426963 -14.12890625 44.3125 C-11.65625188 50.79815081 -8.87939581 55.24775638 -3 59 C-2.0925 59.598125 -1.185 60.19625 -0.25 60.8125 C4.41738761 62.51789163 9.0636434 62.74527697 14 63 C13.37738281 63.2990625 12.75476563 63.598125 12.11328125 63.90625 C9.95729331 64.92738048 9.95729331 64.92738048 8.1875 66.5 C5.06174882 68.64337224 2.779887 69.49601507 -1 70 C-8.58119038 67.33118637 -12.95508123 60.9765307 -16.48046875 54.12109375 C-22.33378172 40.75848851 -20.85568574 27.65983705 -16.00390625 14.24609375 C-13.16999292 7.66631573 -9.35702856 4.22613247 -3 1 C-2.01 0.67 -1.02 0.34 0 0 Z " fill="#766C74" transform="translate(239,320)"/>
<path d="M0 0 C7.76808585 0.40884662 14.56238037 5.13415436 19.8125 10.625 C23.7094166 15.41978099 26.36829757 21.05108489 28 27 C27.67 28.32 27.34 29.64 27 31 C25.35 28.69 23.7 26.38 22 24 C22.144375 24.64582031 22.28875 25.29164063 22.4375 25.95703125 C26.04445932 44.26735945 25.47982459 63.82812109 15 79.8125 C12.78908874 82.97735774 10.48201964 86.0406689 8 89 C7.34 88.67 6.68 88.34 6 88 C6.38671875 87.40574219 6.7734375 86.81148438 7.171875 86.19921875 C18.34360932 68.41846338 20.37583075 48.23187277 15.9765625 27.87109375 C13.19145375 16.83092267 8.39632496 7.75045381 0 0 Z " fill="#6F656E" transform="translate(155,308)"/>
<path d="M0 0 C2.23837309 4.30456364 2.88318058 8.38832018 1.625 13.125 C-2.12104092 18.09335753 -5.5918963 19.0962903 -11.4375 19.9375 C-12.14455078 20.05802734 -12.85160156 20.17855469 -13.58007812 20.30273438 C-16.90220496 20.84862376 -20.00014129 21.125 -23.375 21.125 C-23.71301152 18.58387768 -24.04553379 16.04223254 -24.375 13.5 C-24.47039062 12.78714844 -24.56578125 12.07429688 -24.6640625 11.33984375 C-25.19106101 7.23678391 -25.47966984 3.27254258 -25.375 -0.875 C-6.89673913 -3.83152174 -6.89673913 -3.83152174 0 0 Z " fill="#FCFCFC" transform="translate(238.375,114.875)"/>
<path d="M0 0 C2.3020949 3.22293286 2.47510654 6.11996324 2 10 C-0.23188384 13.50724604 -2.15581431 15.49520363 -6 17 C-8.76217798 17.44926991 -11.47282991 17.82569368 -14.25 18.125 C-14.99507812 18.21136719 -15.74015625 18.29773438 -16.5078125 18.38671875 C-18.33777846 18.59786867 -20.16879879 18.79984545 -22 19 C-23.25841946 12.25846717 -24.26404456 5.86515862 -24 -1 C-16.69526554 -2.35902036 -6.49286102 -4.23316461 0 0 Z " fill="#FAF9FA" transform="translate(233,90)"/>
<path d="M0 0 C2.83554055 2.48109798 3.9142349 4.80852959 5.5 8.1875 C4.26866333 8.27052368 4.26866333 8.27052368 3.01245117 8.35522461 C-0.08706503 8.56482528 -3.18650045 8.77557642 -6.28588867 8.98706055 C-8.26540366 9.12179443 -10.24500561 9.25524876 -12.22460938 9.38867188 C-19.65969787 9.89689311 -27.08216319 10.46883358 -34.5 11.1875 C-28.60714286 2.88392857 -28.60714286 2.88392857 -24.5 1.1875 C-29.48229776 -0.72876837 -34.22684667 -1.3672115 -39.5 -1.8125 C-39.5 -2.1425 -39.5 -2.4725 -39.5 -2.8125 C-25.84277342 -5.56855293 -12.70883508 -6.58136102 0 0 Z " fill="#F8F8F8" transform="translate(289.5,200.8125)"/>
<path d="M0 0 C2.31 0.33 4.62 0.66 7 1 C5.30836546 13.32096021 3.34052567 25.595428 1.375 37.875 C1.04677084 39.93097296 0.71864508 41.98696242 0.390625 44.04296875 C-0.40505938 49.02883677 -1.20213822 54.01447998 -2 59 C-3.99954746 59.04254356 -6.00041636 59.04080783 -8 59 C-8.33 58.67 -8.66 58.34 -9 58 C-8.76372524 51.06951384 -7.47925539 44.12616255 -6.40625 37.28515625 C-6.25466431 36.30759872 -6.10307861 35.3300412 -5.94689941 34.32286072 C-5.62885141 32.2764756 -5.30945899 30.23029901 -4.98876953 28.18432617 C-4.49762355 25.04732134 -4.01221752 21.90946412 -3.52734375 18.77148438 C-3.21648676 16.77598853 -2.90530067 14.78054391 -2.59375 12.78515625 C-2.44893188 11.84769058 -2.30411377 10.91022491 -2.15490723 9.9443512 C-1.94964417 8.6417057 -1.94964417 8.6417057 -1.74023438 7.31274414 C-1.62111694 6.55014786 -1.50199951 5.78755157 -1.37927246 5.00184631 C-1 3 -1 3 0 0 Z " fill="#4F4857" transform="translate(279,82)"/>
<path d="M0 0 C2.95763585 1.30585098 4.76231178 2.57674927 6.77734375 5.09765625 C7.28434814 5.72591309 7.79135254 6.35416992 8.3137207 7.00146484 C8.84956787 7.68160645 9.38541504 8.36174805 9.9375 9.0625 C10.50235107 9.76842285 11.06720215 10.4743457 11.64916992 11.20166016 C16.87442995 17.76341289 21.95873418 24.43324502 27.03125 31.11328125 C30.6043206 35.80980771 34.27657541 40.42165013 38 45 C36.68 46.32 35.36 47.64 34 49 C31.04236415 47.69414902 29.23768822 46.42325073 27.22265625 43.90234375 C26.71557129 43.27400635 26.20848633 42.64566895 25.68603516 41.99829102 C25.15026855 41.31822998 24.61450195 40.63816895 24.0625 39.9375 C23.49837402 39.23230225 22.93424805 38.52710449 22.35302734 37.80053711 C16.59163435 30.56409348 10.98756504 23.20628097 5.39794922 15.83691406 C2.6302343 12.20011926 -0.18146519 8.59747534 -3 5 C-1.125 1.125 -1.125 1.125 0 0 Z " fill="#0F888B" transform="translate(123,123)"/>
<path d="M0 0 C-1.0572129 2.76501836 -2.19330281 5.3711414 -3.5625 8 C-7.91749824 17.08869197 -7.24035379 29.33445119 -4.125 38.75 C-2.92344961 41.93633363 -1.56760891 44.97776299 0 48 C-2.125 48.8125 -2.125 48.8125 -5 49 C-11.48078917 45.0321699 -13.83897879 39.35382952 -15.75 32.1875 C-15.8325 31.135625 -15.915 30.08375 -16 29 C-16.07476562 28.13761719 -16.14953125 27.27523438 -16.2265625 26.38671875 C-16.64795197 17.83694826 -14.96899816 9.95605268 -9.5078125 3.13671875 C-6.48788091 0.35932052 -4.05445163 -0.59624289 0 0 Z " fill="#504958" transform="translate(144,331)"/>
<path d="M0 0 C3.81531837 -0.44364167 5.48609366 -0.37931182 8.625 1.9375 C14.84591825 9.95921038 16.98722894 18.97895005 16 29 C14.45809191 35.87866771 12.82251825 41.71231759 8 47 C5.29120665 48.35439668 2.99066732 48.06501451 0 48 C0.34933594 47.26394531 0.69867188 46.52789062 1.05859375 45.76953125 C1.51363281 44.79371094 1.96867187 43.81789063 2.4375 42.8125 C2.88996094 41.84957031 3.34242188 40.88664062 3.80859375 39.89453125 C7.57620573 30.74108706 7.81935464 17.31281879 4.125 8.125 C3.45130662 6.73270034 2.74560514 5.35515095 2 4 C1.3314898 2.66759003 0.66427182 1.33452807 0 0 Z " fill="#4F4857" transform="translate(355,331)"/>
<path d="M0 0 C0.66 0.33 1.32 0.66 2 1 C0.9015258 2.46262592 -0.2040036 3.91995503 -1.3125 5.375 C-1.92738281 6.18710937 -2.54226563 6.99921875 -3.17578125 7.8359375 C-5 10 -5 10 -8 12 C-4.7 11.67 -1.4 11.34 2 11 C-2.64549987 17.50369982 -8.78570252 21.98275578 -16.625 23.875 C-17.40875 23.91625 -18.1925 23.9575 -19 24 C-19 24.66 -19 25.32 -19 26 C-15.07561214 27.66489182 -11.10899581 28.87204037 -7 30 C-7 30.33 -7 30.66 -7 31 C-17.8793854 31.68873014 -25.79351625 31.68116315 -35 25 C-35 24.34 -35 23.68 -35 23 C-34.0821875 22.81824219 -33.164375 22.63648438 -32.21875 22.44921875 C-25.55707318 21.08469461 -19.27392354 19.63504789 -13 17 C-15.97 16.67 -18.94 16.34 -22 16 C-20.53282993 11.59848978 -17.80204777 9.55610644 -14 7 C-10.89824304 5.55198591 -7.77742694 4.28384954 -4.57421875 3.078125 C-1.89409714 2.14680161 -1.89409714 2.14680161 0 0 Z " fill="#4C4555" transform="translate(271,386)"/>
<path d="M0 0 C0 0.33 0 0.66 0 1 C-2.64 1.33 -5.28 1.66 -8 2 C-8 2.33 -8 2.66 -8 3 C-9.25554687 3.01417969 -10.51109375 3.02835938 -11.8046875 3.04296875 C-23.40036968 3.31282432 -32.36467031 3.95443397 -40.875 12.625 C-49.55494501 23.41351656 -49.92528674 37.80217996 -49 51 C-48.3106011 54.81072643 -47.32569182 58.36636801 -46 62 C-45.67 62.99 -45.34 63.98 -45 65 C-45.99 65 -46.98 65 -48 65 C-48.48509793 63.62708132 -48.96275513 62.25153297 -49.4375 60.875 C-49.70433594 60.10929687 -49.97117188 59.34359375 -50.24609375 58.5546875 C-54.48417366 44.19352552 -53.13939678 27.62851582 -46.6796875 14.26953125 C-42.58123121 6.8676744 -36.83355427 -1.06243372 -28.3828125 -3.59765625 C-18.21806302 -5.3139992 -9.45842483 -3.88037942 0 0 Z " fill="#746A72" transform="translate(215,240)"/>
<path d="M0 0 C6.34265965 0.16771456 12.20376038 1.43515201 18.25 3.25 C18.92289063 3.44231201 19.59578125 3.63462402 20.2890625 3.83276367 C26.50566552 5.78389859 30.44003003 8.84977112 34.3125 14.1875 C37.00438018 19.43496264 37.71151049 24.86373666 36.40625 30.6171875 C33.02108167 40.21822526 25.71820263 45.3488998 18.0234375 51.546875 C14.80994544 54.15420448 11.65103165 56.81796344 8.5 59.5 C3.58902389 63.67103544 -1.35574396 67.79550496 -6.359375 71.85546875 C-8.17041998 73.32627303 -9.97207668 74.80869091 -11.765625 76.30078125 C-12.64734375 77.02652344 -13.5290625 77.75226563 -14.4375 78.5 C-15.61119141 79.47453125 -15.61119141 79.47453125 -16.80859375 80.46875 C-18.94459275 81.96128406 -20.45304736 82.58227656 -23 83 C-21.67925141 79.98759663 -20.37992069 78.21193107 -17.796875 76.1875 C-17.15322998 75.67541992 -16.50958496 75.16333984 -15.84643555 74.63574219 C-15.15461182 74.09594727 -14.46278809 73.55615234 -13.75 73 C-12.29166755 71.84017588 -10.83466126 70.67868256 -9.37890625 69.515625 C-8.27699951 68.63680664 -8.27699951 68.63680664 -7.15283203 67.74023438 C-3.93992012 65.14308807 -0.81001095 62.45463007 2.3125 59.75 C6.40985887 56.20682043 10.53852089 52.72066753 14.75 49.3125 C18.3714381 46.35534936 21.96736462 43.37547866 25.5 40.3125 C26.2940625 39.62800781 27.088125 38.94351563 27.90625 38.23828125 C31.32115094 34.58765021 33.428104 30.68004622 33.4375 25.625 C33.21224169 19.55326475 30.95308319 15.00733551 26.75 10.6875 C23.27966619 8.55797698 19.88278494 7.19470306 16 6 C15.37867188 5.8040625 14.75734375 5.608125 14.1171875 5.40625 C5.98541347 3.23777693 -2.63690403 3.34282378 -11 3 C-11 2.67 -11 2.34 -11 2 C-5.555 1.505 -5.555 1.505 0 1 C0 0.67 0 0.34 0 0 Z " fill="#EFEEEF" transform="translate(210,233)"/>
<path d="M0 0 C-1.27654492 4.00693266 -2.76962628 7.79496548 -4.5 11.625 C-7.06111651 17.65382293 -8.23002753 23.51844068 -9 30 C-9.66 29.34 -10.32 28.68 -11 28 C-11.78183182 41.53437748 -10.23913188 52.67351911 -1.234375 63.51171875 C0 65 0 65 1 67 C-3.24329746 66.51038875 -6.19360543 64.04845555 -9 61 C-14.55105659 52.47847834 -16.54523694 43.15496128 -16.4375 33.125 C-16.43137695 32.15626953 -16.42525391 31.18753906 -16.41894531 30.18945312 C-16.19901035 20.14011706 -13.96242609 10.77802116 -6.484375 3.53125 C-2.44305556 0 -2.44305556 0 0 0 Z " fill="#585260" transform="translate(310,322)"/>
<path d="M0 0 C7.36611658 5.1159484 12.80833936 11.55148653 16 20 C15.67 20.66 15.34 21.32 15 22 C14.48953125 21.34773438 13.9790625 20.69546875 13.453125 20.0234375 C7.20830435 12.51636587 -0.16234611 6.81889028 -10 5 C-16.75985101 4.43847883 -22.4476923 5.08357622 -28.80859375 7.44140625 C-31.27241482 8.06943907 -32.62339544 7.81746535 -35 7 C-24.16329834 -4.11066322 -14.73590612 -7.67927502 0 0 Z " fill="#4F4857" transform="translate(265,312)"/>
<path d="M0 0 C5.30147766 1.87480344 7.96526678 4.31450531 11 9 C17.01632239 22.13690649 18.03776755 37.39793518 14.0546875 51.30078125 C11.87450714 56.88042804 9.01443502 61.65704332 4 65 C4.61875 63.14375 4.61875 63.14375 5.25 61.25 C5.65412109 60.02990234 5.65412109 60.02990234 6.06640625 58.78515625 C6.72860492 56.80964307 7.40449887 54.83869681 8.08984375 52.87109375 C8.45207031 51.82050781 8.81429687 50.76992188 9.1875 49.6875 C9.53167969 48.70136719 9.87585938 47.71523438 10.23046875 46.69921875 C11.18277976 43.82667417 11.18277976 43.82667417 11 40 C10.34 40 9.68 40 9 40 C8.96261719 38.75605469 8.92523438 37.51210938 8.88671875 36.23046875 C8.391647 22.70440138 6.59009708 12.00804251 0 0 Z " fill="#524B5A" transform="translate(189,322)"/>
<path d="M0 0 C0.66 0 1.32 0 2 0 C6 4.47058824 6 4.47058824 6 7 C6.86238281 7.40605469 6.86238281 7.40605469 7.7421875 7.8203125 C10.02804236 9.01465189 12.02565294 10.37989305 14.125 11.875 C18.8149566 15.05886404 23.67532289 17.11023986 29 19 C26.20083611 20.86610926 24.18061731 21.68785383 21 22.625 C19.700625 23.01558594 19.700625 23.01558594 18.375 23.4140625 C16 24 16 24 13 24 C13.33 22.02 13.66 20.04 14 18 C11.47411298 20.36292656 10.11179163 21.66462511 9 25 C4.28840381 23.89138913 1.87683709 21.23490974 -0.83203125 17.42578125 C-2.91306162 13.10364126 -2.75392823 8.66855559 -2 4 C-0.96875 1.671875 -0.96875 1.671875 0 0 Z " fill="#474050" transform="translate(212,383)"/>
<path d="M0 0 C0.81855469 0.31324219 1.63710937 0.62648438 2.48046875 0.94921875 C2.48046875 4.44685079 1.92337119 5.04757403 -0.26953125 7.63671875 C-0.78 8.25933594 -1.29046875 8.88195312 -1.81640625 9.5234375 C-3.51953125 10.94921875 -3.51953125 10.94921875 -7.51953125 10.94921875 C-7.29265625 11.83609375 -7.06578125 12.72296875 -6.83203125 13.63671875 C-6.45002998 17.68593219 -7.43091105 18.56013692 -9.51953125 21.94921875 C-10.30174402 24.03424743 -11.03085668 26.13992957 -11.70703125 28.26171875 C-12.05121094 29.33035156 -12.39539063 30.39898437 -12.75 31.5 C-13.13091797 32.71236328 -13.13091797 32.71236328 -13.51953125 33.94921875 C-13.84953125 33.94921875 -14.17953125 33.94921875 -14.51953125 33.94921875 C-14.76703125 32.77359375 -15.01453125 31.59796875 -15.26953125 30.38671875 C-16.02020534 27.29087305 -17.0169097 24.89522579 -18.70703125 22.19921875 C-20.51953125 18.94921875 -20.51953125 18.94921875 -20.34448242 16.9777832 C-18.67224298 12.8657271 -15.00580014 10.13057514 -11.83203125 7.13671875 C-11.12369141 6.43095703 -10.41535156 5.72519531 -9.68554688 4.99804688 C-4.34880005 -0.06274628 -4.34880005 -0.06274628 0 0 Z " fill="#F4F4F4" transform="translate(223.51953125,303.05078125)"/>
<path d="M0 0 C4.5572169 1.45619679 7.35103327 3.25368826 10.5 6.875 C12.18770632 10.39105484 12.64005173 12.15968959 12 16 C6.433224 25.37095094 -2.74617155 31.89605887 -11.125 38.65625 C-13.69500484 40.75136264 -16.22308603 42.88438704 -18.74194336 45.04003906 C-25.64312091 50.94560646 -32.75001801 56.52988266 -40 62 C-40.66 61.01 -41.32 60.02 -42 59 C-41.14535156 58.45472656 -40.29070312 57.90945313 -39.41015625 57.34765625 C-35.84723111 54.96993842 -32.65732992 52.2546796 -29.4375 49.4375 C-28.20082558 48.36683541 -26.96383925 47.29653099 -25.7265625 46.2265625 C-25.10555664 45.68805664 -24.48455078 45.14955078 -23.84472656 44.59472656 C-14.48178504 36.50066436 -5.03710805 28.44776121 4.75 20.87109375 C7.95480108 18.20599007 7.9620316 17.39234018 8.375 13.125 C8.30175863 10.00942501 8.1799884 9.22964038 6.1875 6.6875 C-0.03871488 3.39126859 -7.04724397 1.93956163 -14 1 C-9.41853726 -2.05430849 -5.25930724 -0.9843239 0 0 Z " fill="#EDF2F3" transform="translate(225,245)"/>
<path d="M0 0 C3.50846571 1.54665542 6.14212685 3.65623095 9.0625 6.125 C12.92927065 9.31973832 16.81265521 12.47279506 20.8125 15.5 C21.66457031 16.1496875 22.51664062 16.799375 23.39453125 17.46875 C26.30516805 19.17934914 28.66461386 19.64941927 32 20 C28.82050144 23.54286982 26.85218179 25.73323815 22 26 C13.55459594 21.73548904 6.08706254 13.96050654 -1.0078125 7.7578125 C-1.56098145 7.2745752 -2.11415039 6.79133789 -2.68408203 6.29345703 C-4 5 -4 5 -5 3 C-3.8553125 3.2475 -3.8553125 3.2475 -2.6875 3.5 C0.03596236 4.09145396 0.03596236 4.09145396 3 4 C2.01 2.68 1.02 1.36 0 0 Z " fill="#4C4555" transform="translate(290,288)"/>
<path d="M0 0 C-0.61495273 2.81505058 -1.24137901 5.62664944 -1.875 8.4375 C-2.13603516 9.64116211 -2.13603516 9.64116211 -2.40234375 10.86914062 C-2.87150513 12.9282378 -3.42972759 14.96658343 -4 17 C-4.66 17.33 -5.32 17.66 -6 18 C-6.55985596 17.61142822 -7.11971191 17.22285645 -7.6965332 16.82250977 C-10.23261576 15.06542509 -12.77249607 13.31391065 -15.3125 11.5625 C-16.63411133 10.64500977 -16.63411133 10.64500977 -17.98242188 9.70898438 C-18.82998047 9.12568359 -19.67753906 8.54238281 -20.55078125 7.94140625 C-21.33106689 7.40201416 -22.11135254 6.86262207 -22.9152832 6.30688477 C-25.05751793 4.8497389 -25.05751793 4.8497389 -28 4 C-28 3.34 -28 2.68 -28 2 C-26.91460937 1.93941406 -25.82921875 1.87882813 -24.7109375 1.81640625 C-23.26561514 1.73193936 -21.82030318 1.64729449 -20.375 1.5625 C-19.66214844 1.52318359 -18.94929688 1.48386719 -18.21484375 1.44335938 C-15.04278069 1.25419965 -11.98886864 0.99810795 -8.8515625 0.46484375 C-5.85483767 -0.02366345 -3.03081069 -0.07216216 0 0 Z " fill="#F4F9FA" transform="translate(85,234)"/>
<path d="M0 0 C5.2859716 1.39922778 8.08835867 4.56758013 11 9 C17.5949394 22.36668683 19.75208666 38.54213635 15 53 C13.375 56.125 13.375 56.125 12 58 C14.64 58 17.28 58 20 58 C20 58.33 20 58.66 20 59 C18.62714844 59.19916016 18.62714844 59.19916016 17.2265625 59.40234375 C16.03804688 59.57894531 14.84953125 59.75554687 13.625 59.9375 C12.44164062 60.11152344 11.25828125 60.28554688 10.0390625 60.46484375 C7.09297619 60.83462786 7.09297619 60.83462786 5 62 C0.23880149 61.07847771 -3.34728213 60.34832472 -7 57 C-6.67 56.01 -6.34 55.02 -6 54 C-5.319375 54.495 -4.63875 54.99 -3.9375 55.5 C0.25015348 57.63837624 3.82228678 57.64742825 8.3125 56.3125 C11.50123353 53.83237392 11.89848672 50.61278453 12.53515625 46.76953125 C14.12252309 33.8971867 13.96749829 19.61388051 6.33984375 8.578125 C4.48245667 6.39041543 2.26483748 4.74716034 0 3 C0 2.01 0 1.02 0 0 Z " fill="#E8EAEB" transform="translate(317,247)"/>
<path d="M0 0 C7.45016247 5.76124852 11.67602626 15.86728317 13 25 C13.7186354 38.39149436 12.6508904 50.07426549 6 62 C5.01 62 4.02 62 3 62 C3.268125 61.34 3.53625 60.68 3.8125 60 C4.204375 59.01 4.59625 58.02 5 57 C5.25265625 56.37222656 5.5053125 55.74445313 5.765625 55.09765625 C6.16007813 54.09025391 6.16007813 54.09025391 6.5625 53.0625 C6.81128906 52.43472656 7.06007812 51.80695313 7.31640625 51.16015625 C11.42693815 38.17087545 9.65388473 22.84471172 4.1875 10.5625 C2.09877603 6.71442776 -0.3892453 4.45838618 -4 2 C-4.99 2 -5.98 2 -7 2 C-7 1.34 -7 0.68 -7 0 C-4.25487844 -1.37256078 -2.90700493 -0.86246984 0 0 Z " fill="#F1F0F1" transform="translate(195,321)"/>
<path d="M0 0 C2.4375 1.625 2.4375 1.625 4 4 C4.4842732 7.32073048 4.33817538 9.26397123 2.9375 12.3125 C-0.00151995 14.87229157 -2.14789873 15.06641554 -6 15 C-9 13 -9 13 -11 10 C-11 6.45638757 -10.65850044 4.13408409 -8.875 1.0625 C-5.81547541 -0.6712306 -3.43182475 -0.42145216 0 0 Z " fill="#F7F7F7" transform="translate(253,348)"/>
<path d="M0 0 C1 3 1 3 0.0625 5.875 C-2.84866483 15.32631595 -0.93168866 24.83847294 2 34 C-1.96 34 -5.92 34 -10 34 C-9.18619792 31.98177083 -8.37239583 29.96354167 -7.55859375 27.9453125 C-6.7462882 25.94350596 -6.7462882 25.94350596 -8 24 C-7.505 22.845 -7.01 21.69 -6.5 20.5 C-4.14731658 14.65037349 -5.04308798 8.87073605 -7 3 C-4.69 2.01 -2.38 1.02 0 0 Z " fill="#6E646D" transform="translate(251,245)"/>
<path d="M0 0 C0.66 0 1.32 0 2 0 C2.33 5.94 2.66 11.88 3 18 C1.35 18.66 -0.3 19.32 -2 20 C-4.3343558 22.88461063 -4.3343558 22.88461063 -3.9375 26.5 C-3.36488716 30.15898898 -3.36488716 30.15898898 -0.4375 31.75 C0.7690625 32.36875 0.7690625 32.36875 2 33 C2 33.99 2 34.98 2 36 C1.154375 36.185625 0.30875 36.37125 -0.5625 36.5625 C-5.09509046 38.45794692 -7.74687672 41.40039022 -11 45 C-12.32 44.34 -13.64 43.68 -15 43 C-15 42.01 -15 41.02 -15 40 C-13.54963524 38.59280086 -12.03951787 37.24656535 -10.5 35.9375 C-7.00120046 32.69828666 -7.00120046 32.69828666 -5.54296875 28.328125 C-5.63711082 26.6081239 -5.76815638 24.88962225 -5.94140625 23.17578125 C-6 21 -6 21 -4.125 18.375 C-2 17 -2 17 0 17 C0 11.39 0 5.78 0 0 Z " fill="#797078" transform="translate(247,330)"/>
<path d="M0 0 C5.15792886 1.36533411 8.20365091 4.61446891 11 9 C13.78317769 15.10588392 14.51622296 20.20068931 14.4375 26.875 C14.42831543 28.19673218 14.42831543 28.19673218 14.41894531 29.54516602 C14.21149729 38.16782296 12.39595029 45.79786638 6 52 C3.25 53.3125 3.25 53.3125 1 54 C1.3394303 50.94512731 1.90677198 50.07810997 4.3125 48.0625 C9.60322044 43.07937959 11.16754384 34.00450742 11.5 27 C11.19357988 19.81091245 8.92919024 11.09024487 5 5 C1.45411499 3.70079254 1.45411499 3.70079254 -2 3 C-1.34 2.67 -0.68 2.34 0 2 C0 1.34 0 0.68 0 0 Z " fill="#F1F0F2" transform="translate(359,328)"/>
<path d="M0 0 C0.33 0 0.66 0 1 0 C1.02716089 3.02089478 1.04691657 6.04154129 1.0625 9.0625 C1.07087891 9.91005859 1.07925781 10.75761719 1.08789062 11.63085938 C1.13847193 24.73141699 1.13847193 24.73141699 -2.1875 28.4375 C-5.43484125 30.24157847 -7.35060208 30.12618942 -11 30 C-10.65066406 29.26394531 -10.30132812 28.52789062 -9.94140625 27.76953125 C-9.48636719 26.79371094 -9.03132813 25.81789063 -8.5625 24.8125 C-8.11003906 23.84957031 -7.65757812 22.88664062 -7.19140625 21.89453125 C-6.09618578 19.23368414 -5.45045204 16.83215245 -5 14 C-4.34 14.33 -3.68 14.66 -3 15 C-1.42922093 9.97350697 -0.55145271 5.23880078 0 0 Z " fill="#716870" transform="translate(366,349)"/>
<path d="M0 0 C0.33 0.66 0.66 1.32 1 2 C-0.00390625 4.71484375 -0.00390625 4.71484375 -1.5625 7.9375 C-2.30693359 9.52884766 -2.30693359 9.52884766 -3.06640625 11.15234375 C-5.34794776 14.51243216 -7.2474626 15.55632945 -11 17 C-14.36588782 17 -15.22865105 15.7869388 -17.75 13.4375 C-18.4925 12.633125 -19.235 11.82875 -20 11 C-18.865625 10.814375 -17.73125 10.62875 -16.5625 10.4375 C-11.00798573 9.0834636 -7.29688169 5.59344741 -3 2 C-2.01 1.34 -1.02 0.68 0 0 Z " fill="#736971" transform="translate(197,297)"/>
<path d="M0 0 C0 0.33 0 0.66 0 1 C-1.06541016 1.18175781 -1.06541016 1.18175781 -2.15234375 1.3671875 C-3.07144531 1.53476562 -3.99054688 1.70234375 -4.9375 1.875 C-5.85402344 2.03742188 -6.77054688 2.19984375 -7.71484375 2.3671875 C-8.46894531 2.57601563 -9.22304687 2.78484375 -10 3 C-10.33 3.66 -10.66 4.32 -11 5 C-13.14453125 5.88671875 -13.14453125 5.88671875 -15.8125 6.6875 C-16.68519531 6.95949219 -17.55789062 7.23148437 -18.45703125 7.51171875 C-21.06873834 8.01319861 -22.51716384 7.86233704 -25 7 C-10.88958206 -7.46714199 -10.88958206 -7.46714199 0 0 Z " fill="#706770" transform="translate(255,312)"/>
<path d="M0 0 C-2.49604756 2.49604756 -4.66632702 3.03565309 -8 4.1875 C-14.47399637 6.59459077 -19.52302031 9.86726887 -25 14 C-25.99 14.495 -25.99 14.495 -27 15 C-26.54464562 10.10494044 -25.53993401 7.44916647 -22 4 C-15.37730263 -1.12133021 -8.01457423 -0.40523128 0 0 Z " fill="#F2F1F2" transform="translate(277,226)"/>
<path d="M0 0 C0.33 1.32 0.66 2.64 1 4 C1.66 4 2.32 4 3 4 C2.48964169 8.3890815 1.47785723 11.33708062 -1 15 C1.64 15 4.28 15 7 15 C7 15.33 7 15.66 7 16 C5.62714844 16.19916016 5.62714844 16.19916016 4.2265625 16.40234375 C3.03804688 16.57894531 1.84953125 16.75554687 0.625 16.9375 C-0.55835938 17.11152344 -1.74171875 17.28554688 -2.9609375 17.46484375 C-5.90702381 17.83462786 -5.90702381 17.83462786 -8 19 C-12.76119851 18.07847771 -16.34728213 17.34832472 -20 14 C-19.67 13.01 -19.34 12.02 -19 11 C-18.319375 11.495 -17.63875 11.99 -16.9375 12.5 C-12.74984652 14.63837624 -9.17771322 14.64742825 -4.6875 13.3125 C-1.33392961 10.70416748 -1.03599671 7.21957991 -0.375 3.1875 C-0.25125 2.135625 -0.1275 1.08375 0 0 Z " fill="#DFE3E5" transform="translate(330,290)"/>
<path d="M0 0 C2 2 2 2 2.05859375 3.94921875 C0.38040437 7.20032364 -2.64564711 7.7521906 -5.9375 8.8125 C-6.58396484 9.04130859 -7.23042969 9.27011719 -7.89648438 9.50585938 C-9.57493687 10.07580119 -11.28675629 10.54521167 -13 11 C-13.66 10.67 -14.32 10.34 -15 10 C-13.90033225 8.70450101 -12.79508199 7.41373929 -11.6875 6.125 C-11.07261719 5.40570313 -10.45773438 4.68640625 -9.82421875 3.9453125 C-6.67115735 0.58294724 -4.54342377 -0.46599218 0 0 Z " fill="#12898C" transform="translate(193,254)"/>
<path d="M0 0 C1.28472765 3.85418295 0.42519168 4.8127318 -1.25 8.4375 C-3.61342463 13.7911138 -5.08210098 18.96947959 -6.2265625 24.69921875 C-6.60941406 25.83810547 -6.60941406 25.83810547 -7 27 C-7.99 27.33 -8.98 27.66 -10 28 C-9.76321419 18.46398985 -6.75371001 9.27568949 -2 1 C-1.34 0.67 -0.68 0.34 0 0 Z " fill="#F5F5F5" transform="translate(336,318)"/>
<path d="M0 0 C5.51395717 3.39320441 10.35586429 7.49002821 15 12 C15 12.33 15 12.66 15 13 C7.80174292 13.61002179 7.80174292 13.61002179 4.125 10.8125 C1.37157962 7.16826715 0 4.58576652 0 0 Z " fill="#128A8D" transform="translate(281,265)"/>
<path d="M0 0 C4.5572169 1.45619679 7.35103327 3.25368826 10.5 6.875 C12.11347493 10.2364061 12.35028885 12.32196713 12 16 C11.01 15.67 10.02 15.34 9 15 C8.690625 13.88625 8.38125 12.7725 8.0625 11.625 C6.88786271 7.61741394 6.42467839 7.07484818 3 5 C0.40473648 4.03897758 0.40473648 4.03897758 -2.375 3.375 C-3.33792969 3.12878906 -4.30085937 2.88257813 -5.29296875 2.62890625 C-8.18157953 1.95781486 -11.06058669 1.39721801 -14 1 C-9.41853726 -2.05430849 -5.25930724 -0.9843239 0 0 Z " fill="#E0E6E8" transform="translate(225,245)"/>
<path d="M0 0 C1.2002147 4.2054352 0.98534189 8.23057562 0.875 12.5625 C0.77047243 19.83191705 1.48790246 26.11450984 4 33 C4.33 33.99 4.66 34.98 5 36 C4.01 36 3.02 36 2 36 C1.51490207 34.62708132 1.03724487 33.25153297 0.5625 31.875 C0.29566406 31.10929687 0.02882812 30.34359375 -0.24609375 29.5546875 C-2.11125886 23.23438707 -2.12305437 17.15555537 -2.0625 10.625 C-2.05798828 9.69816406 -2.05347656 8.77132813 -2.04882812 7.81640625 C-2.03711574 5.54420291 -2.02071372 3.27213612 -2 1 C-1.34 0.67 -0.68 0.34 0 0 Z " fill="#898188" transform="translate(165,269)"/>
<path d="M0 0 C7.07557054 3.20085334 11.9472602 6.70734382 15 14 C10.93190071 13.47462592 8.82396544 12.38599539 5.8125 9.625 C4.80123047 8.71621094 4.80123047 8.71621094 3.76953125 7.7890625 C1.18974635 5.18080316 0 3.73620789 0 0 Z " fill="#F0F0F1" transform="translate(233,287)"/>
<path d="M0 0 C1.2861561 3.85846831 0.41232663 5.4324107 -0.875 9.25 C-2.37553116 13.8809496 -3.54978718 18.16021221 -4 23 C-6 21 -6 21 -6.125 17.375 C-6.08375 16.26125 -6.0425 15.1475 -6 14 C-6.66 13.67 -7.32 13.34 -8 13 C-7.2368139 11.39218107 -6.46412942 9.78886862 -5.6875 8.1875 C-5.25824219 7.29417969 -4.82898438 6.40085937 -4.38671875 5.48046875 C-3.11778211 3.21068067 -1.93443102 1.70751829 0 0 Z " fill="#6F666E" transform="translate(137,332)"/>
<path d="M0 0 C5.31664204 4.58750256 7.00191918 12.44408572 7.75 19.1875 C7.8325 20.445625 7.915 21.70375 8 23 C6.68 23.33 5.36 23.66 4 24 C3.87882813 23.02160156 3.75765625 22.04320312 3.6328125 21.03515625 C2.73279307 13.9373169 1.70876554 6.95711683 0 0 Z " fill="#746A72" transform="translate(197,328)"/>
<path d="M0 0 C0 0.99 0 1.98 0 3 C-0.5053125 2.83757812 -1.010625 2.67515625 -1.53125 2.5078125 C-4.87997208 1.81899309 -8.08341354 1.86827444 -11.5 1.875 C-12.8096875 1.87242187 -14.119375 1.86984375 -15.46875 1.8671875 C-18.22235924 1.97075245 -20.40352847 2.16541986 -23 3 C-23 2.01 -23 1.02 -23 0 C-15.72018504 -3.14802809 -7.27981496 -3.14802809 0 0 Z " fill="#E6E5E7" transform="translate(261,318)"/>
<path d="M0 0 C6.2054142 0.48320848 11.99945246 1.33318124 18 3 C17.01 4.485 17.01 4.485 16 6 C14.88625 5.690625 13.7725 5.38125 12.625 5.0625 C4.90446795 3.30952896 -3.11768389 3.32311544 -11 3 C-11 2.67 -11 2.34 -11 2 C-5.555 1.505 -5.555 1.505 0 1 C0 0.67 0 0.34 0 0 Z " fill="#E1E0E2" transform="translate(210,233)"/>
<path d="M0 0 C2.625 0.375 2.625 0.375 5 1 C4.06409496 2.1055189 3.12620142 3.20935453 2.1875 4.3125 C1.66542969 4.92738281 1.14335937 5.54226563 0.60546875 6.17578125 C-0.87172469 7.85424679 -2.40039131 9.43882034 -4 11 C-5.32 10.34 -6.64 9.68 -8 9 C-7.04270084 7.87411986 -6.08412105 6.7493285 -5.125 5.625 C-4.59132812 4.99851562 -4.05765625 4.37203125 -3.5078125 3.7265625 C-2.38567993 2.44163349 -1.20628025 1.20628025 0 0 Z " fill="#484150" transform="translate(240,364)"/>
<path d="M0 0 C5.27470772 1.39624616 7.91659066 4.73816123 11 9 C14 14.3 14 14.3 14 17 C13.01 17 12.02 17 11 17 C10.70867187 16.40832031 10.41734375 15.81664062 10.1171875 15.20703125 C8.05072256 11.22356267 6.28054391 7.89872749 2.6875 5.125 C1.800625 4.42375 0.91375 3.7225 0 3 C0 2.01 0 1.02 0 0 Z " fill="#EBEFF0" transform="translate(317,247)"/>
<path d="M0 0 C6.15732389 0.38483274 10.77310755 4.64599106 14.84765625 8.953125 C16.27088466 10.60851124 17.65632042 12.27968296 19 14 C18.01 14.33 17.02 14.66 16 15 C14.824375 13.453125 14.824375 13.453125 13.625 11.875 C10.29741075 7.93148678 6.48496842 5.68881043 1.9765625 3.26171875 C1.32429688 2.84535156 0.67203125 2.42898438 0 2 C0 1.34 0 0.68 0 0 Z " fill="#F3F3F4" transform="translate(261,319)"/>
<path d="M0 0 C0.33 0 0.66 0 1 0 C0.6083965 5.95507399 -0.37124595 10.62819824 -3 16 C-3.99 16 -4.98 16 -6 16 C-3.03788505 4.00448483 -3.03788505 4.00448483 0 0 Z " fill="#F4F3F4" transform="translate(170,372)"/>
<path d="M0 0 C-2.38333095 2.74515677 -4.68909319 3.89080018 -8.0625 5.1875 C-8.94035156 5.53167969 -9.81820313 5.87585938 -10.72265625 6.23046875 C-13 7 -13 7 -15 7 C-15 6.34 -15 5.68 -15 5 C-15.66 4.67 -16.32 4.34 -17 4 C-16.32453125 3.80664062 -15.6490625 3.61328125 -14.953125 3.4140625 C-13.61507813 3.02347656 -13.61507813 3.02347656 -12.25 2.625 C-11.36828125 2.36976563 -10.4865625 2.11453125 -9.578125 1.8515625 C-7.01192344 1.08881073 -7.01192344 1.08881073 -4.859375 -0.1640625 C-3 -1 -3 -1 0 0 Z " fill="#F1F1F2" transform="translate(270,387)"/>
<path d="M0 0 C4.51045941 2.46025059 8.18504423 5.60282037 12 9 C11.67 9.99 11.34 10.98 11 12 C9.15798847 10.57363718 7.32659413 9.13355368 5.5 7.6875 C4.4790625 6.88699219 3.458125 6.08648437 2.40625 5.26171875 C1.6121875 4.51535156 0.818125 3.76898438 0 3 C0 2.01 0 1.02 0 0 Z " fill="#ECF2F3" transform="translate(298,291)"/>
<path d="M0 0 C0 3.23655184 -0.6550847 4.78752639 -2 7.6875 C-2.556875 8.89986328 -2.556875 8.89986328 -3.125 10.13671875 C-3.41375 10.75160156 -3.7025 11.36648438 -4 12 C-4.99 10.68 -5.98 9.36 -7 8 C-4.69 5.36 -2.38 2.72 0 0 Z " fill="#736971" transform="translate(306,323)"/>
<path d="M0 0 C0.125 6.625 0.125 6.625 -1 10 C-1.99 10.33 -2.98 10.66 -4 11 C-3.8864371 9.35333797 -3.75882619 7.70763918 -3.625 6.0625 C-3.55539062 5.14597656 -3.48578125 4.22945313 -3.4140625 3.28515625 C-3.27742188 2.53105469 -3.14078125 1.77695312 -3 1 C-1 0 -1 0 0 0 Z " fill="#EFEEEF" transform="translate(330,335)"/>
<path d="M0 0 C0.33 0.66 0.66 1.32 1 2 C1.66 2 2.32 2 3 2 C2.34 4.97 1.68 7.94 1 11 C0.01 11 -0.98 11 -2 11 C-1.34 7.37 -0.68 3.74 0 0 Z " fill="#E2E1E3" transform="translate(370,360)"/>
<path d="M0 0 C0.99 0.33 1.98 0.66 3 1 C3.6875 4.3125 3.6875 4.3125 4 8 C3.01 8.99 2.02 9.98 1 11 C0.67 7.37 0.34 3.74 0 0 Z " fill="#CFDFE1" transform="translate(329,264)"/>
<path d="M0 0 C0.6875 1.6875 0.6875 1.6875 1 4 C-0.25 6.75 -0.25 6.75 -2 9 C-2.99 9 -3.98 9 -5 9 C-3.7508258 5.54074837 -2.32472205 2.85306797 0 0 Z " fill="#F1F0F1" transform="translate(203,374)"/>
<path d="M0 0 C1.19496094 0.13148438 1.19496094 0.13148438 2.4140625 0.265625 C3.06117188 0.42546875 3.70828125 0.5853125 4.375 0.75 C4.705 1.41 5.035 2.07 5.375 2.75 C1.085 2.42 -3.205 2.09 -7.625 1.75 C-4.3237992 -0.45080053 -3.73398842 -0.46218749 0 0 Z " fill="#EAF4F4" transform="translate(218.625,244.25)"/>
<path d="M0 0 C0.66 0 1.32 0 2 0 C0.94124926 3.40312738 -0.00902154 6.01353231 -2 9 C-2.66 9 -3.32 9 -4 9 C-2.94124926 5.59687262 -1.99097846 2.98646769 0 0 Z " fill="#4F4857" transform="translate(308,322)"/>
<path d="M0 0 C0.6875 1.6875 0.6875 1.6875 1 4 C-0.375 6.75 -0.375 6.75 -2 9 C-2.33 9 -2.66 9 -3 9 C-2.4140625 2.84765625 -2.4140625 2.84765625 -2 1 C-1.34 0.67 -0.68 0.34 0 0 Z " fill="#7C737B" transform="translate(167,261)"/>
<path d="M0 0 C0.33 1.32 0.66 2.64 1 4 C1.66 4 2.32 4 3 4 C2.67 5.98 2.34 7.96 2 10 C1.01 10 0.02 10 -1 10 C-0.67 6.7 -0.34 3.4 0 0 Z " fill="#CCDFE0" transform="translate(330,290)"/>
<path d="M0 0 C-0.33 0.66 -0.66 1.32 -1 2 C-3.5625 2.625 -3.5625 2.625 -6 3 C-6 2.34 -6 1.68 -6 1 C-6.66 0.67 -7.32 0.34 -8 0 C-4.94736336 -0.98120464 -3.05263664 -0.98120464 0 0 Z " fill="#E7E6E8" transform="translate(261,391)"/>
</svg>
