<?xml version="1.0" standalone="no"?>
<!DOCTYPE svg PUBLIC "-//W3C//DTD SVG 20010904//EN"
 "http://www.w3.org/TR/2001/REC-SVG-20010904/DTD/svg10.dtd">
<svg version="1.0" xmlns="http://www.w3.org/2000/svg"
 width="500.000000pt" height="500.000000pt" viewBox="0 0 500.000000 500.000000"
 preserveAspectRatio="xMidYMid meet">

<g transform="translate(0.000000,500.000000) scale(0.100000,-0.100000)"
fill="#000000" stroke="none">
<path d="M2517 4103 c-4 -49 -9 -145 -13 -214 -7 -125 -7 -126 17 -142 48 -34
169 -17 169 24 0 21 20 306 25 357 l5 52 -33 0 -34 0 -6 -77 c-4 -43 -9 -131
-13 -195 l-7 -118 -28 0 c-15 0 -30 3 -32 8 -2 4 1 90 9 192 7 101 10 188 8
192 -3 5 -18 8 -33 8 l-28 0 -6 -87z"/>
<path d="M2123 4146 c-28 -6 -55 -14 -58 -18 -7 -7 74 -418 86 -432 4 -5 41
-1 83 9 95 20 103 32 86 119 -19 99 -30 137 -40 131 -6 -4 -7 6 -4 23 8 38
-14 142 -34 165 -17 19 -43 20 -119 3z m83 -103 c6 -41 4 -49 -16 -65 -29 -23
-36 -14 -46 60 l-7 52 31 0 c29 0 31 -3 38 -47z m43 -201 c7 -35 11 -65 9 -67
-2 -1 -15 -5 -30 -9 -25 -6 -27 -3 -37 45 -15 69 -14 76 11 93 28 20 33 14 47
-62z"/>
<path d="M2992 4093 c-16 -14 -102 -224 -102 -250 0 -2 32 -1 70 3 l71 7 -25
-67 c-13 -37 -26 -69 -29 -72 -2 -3 -16 0 -30 7 -23 10 -24 14 -15 41 13 35
11 37 -29 31 -26 -4 -34 -12 -43 -39 -16 -48 -1 -69 69 -92 89 -30 95 -24 153
138 26 74 48 135 48 136 0 0 -29 -4 -65 -9 -37 -5 -68 -7 -71 -5 -3 4 6 36 31
105 3 9 12 10 33 2 23 -8 29 -15 25 -30 -5 -16 0 -19 30 -19 28 0 35 4 39 23
8 43 -8 64 -64 82 -29 10 -58 20 -64 22 -6 2 -20 -4 -32 -14z"/>
<path d="M1739 4010 c-34 -18 -59 -37 -62 -50 -4 -14 25 -83 89 -211 l94 -189
74 37 c73 36 74 37 64 65 -12 33 -17 34 -68 8 l-40 -20 -26 54 -27 54 33 45
c30 43 32 48 20 77 -7 16 -16 30 -20 30 -4 0 -19 -18 -34 -40 -14 -22 -28 -40
-31 -40 -6 0 -55 96 -55 108 0 5 18 17 40 27 43 19 46 25 30 56 -13 24 -14 24
-81 -11z"/>
<path d="M1338 3737 l-58 -52 108 -120 c59 -67 126 -143 150 -170 l42 -48 25
23 24 23 -55 63 c-33 38 -51 65 -44 69 6 4 46 -10 89 -30 62 -29 83 -35 98
-27 50 27 45 35 -58 81 -99 44 -99 44 -94 75 5 27 -1 39 -55 99 -78 85 -94 86
-172 14z m123 -59 c31 -37 34 -47 27 -70 -6 -16 -13 -28 -18 -28 -4 0 -28 24
-54 54 l-46 55 22 15 c12 9 25 16 28 16 3 0 22 -19 41 -42z"/>
<path d="M3496 3570 l-151 -149 22 -23 23 -22 58 57 c32 31 61 57 64 57 4 0
19 -5 34 -10 l28 -11 -69 -69 -69 -70 21 -22 22 -21 146 138 c143 136 163 164
150 204 -9 29 -82 91 -107 91 -15 0 -71 -49 -172 -150z m199 60 c18 -20 18
-21 -24 -64 -40 -41 -46 -43 -72 -34 -16 5 -29 13 -29 16 0 8 92 102 101 102
3 0 14 -9 24 -20z"/>
<path d="M1071 3432 c-54 -85 -54 -86 141 -217 94 -63 174 -115 178 -115 4 0
27 30 51 66 l43 67 -24 19 -25 20 -15 -23 c-45 -68 -44 -67 -92 -32 -43 31
-43 32 -43 92 0 51 -3 63 -23 76 -30 22 -42 11 -42 -35 0 -21 -4 -41 -8 -44
-8 -4 -70 31 -96 55 -5 5 2 26 18 49 26 40 27 42 9 56 -29 22 -39 17 -72 -34z"/>
<path d="M3770 3275 c-102 -63 -186 -119 -188 -124 -1 -4 5 -18 15 -30 l18
-22 183 115 c101 63 186 117 190 120 6 7 -18 56 -27 56 -3 0 -89 -52 -191
-115z"/>
<path d="M2360 3291 c-197 -42 -315 -97 -368 -170 -27 -37 -72 -130 -72 -148
0 -10 35 -13 143 -13 215 0 327 -30 375 -100 47 -70 48 -145 1 -205 -29 -36
-392 -341 -431 -361 -24 -12 -28 -18 -17 -25 8 -5 22 -9 31 -9 30 0 74 -48
104 -112 27 -58 29 -72 29 -178 0 -124 -14 -173 -71 -247 l-25 -33 41 -52
c102 -129 170 -159 370 -165 l135 -4 -47 22 c-48 22 -62 39 -32 39 27 0 101
41 130 71 l26 27 -42 -5 -43 -6 41 41 c51 51 54 70 7 38 -75 -51 -193 -58
-275 -16 -162 83 -219 282 -140 494 43 113 159 200 266 200 50 0 52 1 43 24
-16 41 -31 66 -67 111 l-35 43 74 -3 74 -4 -27 52 c-29 59 -44 144 -34 198 4
20 23 54 42 75 43 47 158 92 301 117 l95 17 -38 14 c-22 7 -68 20 -104 28 -36
8 -76 17 -90 21 l-25 6 25 7 c14 5 73 8 133 9 66 1 107 5 107 11 0 22 -29 76
-51 97 -44 40 -150 82 -249 98 -121 19 -204 18 -310 -4z m391 -46 c67 -23 86
-35 98 -62 6 -13 11 -25 11 -27 0 -2 -51 -6 -113 -9 -62 -4 -135 -10 -162 -14
l-48 -6 29 37 c16 20 43 40 59 45 26 7 20 9 -43 16 -40 4 -71 9 -68 12 23 24
177 29 237 8z m-36 -235 c-3 -5 -12 -10 -18 -10 -21 0 -151 -66 -174 -89 -23
-21 -23 -21 -23 -2 0 29 54 86 92 98 44 14 131 16 123 3z m-285 -536 c53 -49
60 -64 34 -64 -19 0 -104 81 -104 99 0 21 21 11 70 -35z m-135 -88 c18 -13 18
-15 -8 -50 -16 -20 -35 -36 -43 -36 -9 0 -14 -8 -13 -17 1 -10 -7 -38 -18 -63
-11 -25 -23 -58 -28 -75 l-8 -30 -13 35 c-8 19 -23 51 -33 70 l-20 35 77 72
c42 40 80 72 83 73 3 0 14 -6 24 -14z"/>
<path d="M2030 2934 c-62 -12 -92 -28 -127 -68 -73 -83 -104 -177 -102 -305
l2 -66 7 85 c13 150 52 226 141 274 49 27 53 28 177 23 141 -5 187 -15 232
-53 32 -27 41 -76 20 -114 -8 -15 -102 -98 -358 -314 -18 -16 -49 -34 -68 -41
l-34 -11 22 -21 c21 -19 26 -20 53 -8 37 16 410 328 432 361 8 13 17 43 20 67
8 80 -45 141 -151 172 -52 16 -221 27 -266 19z"/>
<path d="M2760 2929 c-178 -31 -236 -145 -143 -278 40 -56 321 -308 376 -337
26 -14 30 -13 57 9 l29 25 -32 6 c-18 4 -59 29 -92 57 -33 28 -117 97 -186
154 -150 123 -169 145 -169 194 0 80 93 121 274 121 87 0 120 -5 151 -19 52
-24 99 -74 126 -135 39 -89 36 -290 -6 -336 -12 -14 -10 -15 25 -12 36 4 39 6
50 50 15 60 15 207 0 263 -28 103 -82 174 -165 216 -41 22 -66 27 -145 29 -52
2 -120 -1 -150 -7z"/>
<path d="M2086 2829 c36 -39 57 -76 50 -88 -3 -4 -33 -19 -66 -32 -65 -25 -73
-34 -83 -86 l-6 -32 42 14 42 15 -45 -40 c-50 -44 -49 -47 5 -24 20 8 39 13
42 11 18 -19 -85 -142 -137 -166 l-35 -15 29 -4 c35 -4 43 2 265 188 110 93
174 153 178 169 17 66 -56 105 -218 117 l-94 7 31 -34z"/>
<path d="M2896 2804 c15 -32 43 -73 63 -91 20 -18 33 -32 30 -33 -3 0 -32 9
-64 20 -32 11 -60 18 -62 16 -2 -2 20 -24 49 -50 57 -50 57 -54 0 -30 l-37 15
34 -35 c19 -20 33 -38 30 -40 -3 -3 -24 -13 -48 -23 l-44 -19 93 -77 c104 -88
138 -97 180 -52 22 23 25 37 28 126 3 56 -1 119 -7 145 -27 105 -101 169 -209
180 l-62 7 26 -59z"/>
<path d="M1983 2770 c-34 -20 -68 -68 -42 -58 8 3 38 13 67 22 28 10 52 19 52
21 0 6 -31 35 -38 35 -4 0 -21 -9 -39 -20z"/>
<path d="M2755 2679 c12 -40 35 -69 62 -80 49 -18 43 7 -13 56 -48 41 -55 44
-49 24z"/>
<path d="M1812 2460 c0 -14 2 -19 5 -12 2 6 2 18 0 25 -3 6 -5 1 -5 -13z"/>
<path d="M1820 2420 c0 -17 17 -47 23 -40 2 3 -2 16 -10 30 -7 14 -13 18 -13
10z"/>
<path d="M1774 2310 c70 -77 106 -193 106 -337 0 -50 -5 -116 -11 -145 -16
-76 -60 -168 -100 -207 l-34 -33 71 4 c78 4 109 21 152 85 53 78 67 137 67
288 0 176 -21 247 -94 327 l-48 52 -74 4 -74 5 39 -43z"/>
<path d="M2435 2336 c-33 -15 -95 -76 -78 -76 6 0 39 7 73 16 94 24 195 -3
265 -71 52 -51 56 -47 16 17 -64 101 -189 153 -276 114z"/>
<path d="M3158 2313 c-40 -42 -61 -79 -76 -137 -11 -37 -11 -38 9 -21 23 22
23 21 4 -80 -16 -83 -21 -262 -9 -310 5 -21 2 -31 -10 -40 -14 -11 -12 -14 21
-20 37 -7 37 -7 14 -19 l-23 -13 23 -23 c28 -26 96 -59 123 -60 15 0 11 8 -19
41 -142 158 -138 533 8 687 l31 32 -30 0 c-22 0 -40 -11 -66 -37z"/>
<path d="M3295 2336 c-91 -39 -155 -191 -155 -366 0 -105 21 -195 62 -272 41
-77 77 -103 145 -103 46 0 56 4 88 35 170 163 146 610 -37 706 -33 17 -64 17
-103 0z m135 -172 c48 -41 63 -86 64 -194 1 -80 -3 -102 -21 -137 -47 -88
-111 -107 -168 -50 -85 85 -85 289 0 374 41 41 81 44 125 7z"/>
<path d="M3361 2161 c-9 -6 -8 -11 4 -21 47 -39 58 -221 18 -312 -12 -25 -19
-49 -16 -52 13 -13 65 32 85 74 32 63 31 177 -1 243 -24 49 -67 82 -90 68z"/>
<path d="M1689 2315 c-15 -8 -29 -21 -32 -30 -4 -8 -21 -21 -39 -29 -27 -12
-29 -15 -11 -15 12 -1 29 -4 38 -8 14 -5 11 -9 -16 -24 l-34 -18 32 -1 c124
-1 170 -298 63 -407 -26 -27 -41 -33 -96 -38 -53 -6 -64 -10 -60 -24 3 -9 8
-28 12 -43 3 -15 22 -42 42 -59 48 -42 98 -37 152 16 73 71 110 184 110 335 0
144 -40 269 -107 332 -26 24 -30 25 -54 13z"/>
<path d="M2379 2232 c-44 -22 -59 -37 -81 -80 -49 -96 -57 -227 -20 -322 68
-174 289 -203 419 -56 71 80 91 183 57 296 -20 68 -108 160 -170 178 -72 21
-145 15 -205 -16z m228 -68 c134 -83 138 -296 6 -383 -111 -74 -243 -40 -306
79 -25 48 -28 64 -25 121 5 91 42 152 118 192 71 37 136 34 207 -9z"/>
<path d="M2493 2173 c-9 -3 -13 -26 -13 -67 0 -34 -5 -67 -10 -72 -7 -7 -1 -9
19 -6 34 5 71 -26 71 -58 0 -44 -57 -73 -98 -51 -13 7 -29 -2 -67 -35 -47 -41
-48 -45 -32 -61 16 -16 19 -15 59 23 55 52 91 52 152 1 l43 -36 21 22 22 21
-41 42 c-31 32 -42 51 -44 78 -1 21 -11 46 -23 59 -15 16 -22 38 -24 81 -3 58
-10 70 -35 59z"/>
<path d="M2012 2233 c59 -121 61 -128 66 -220 3 -51 9 -93 15 -93 14 0 0 -74
-28 -145 l-24 -60 28 33 c79 93 85 309 11 425 -16 25 -38 51 -50 57 -12 7 -20
8 -18 3z"/>
<path d="M2939 2208 c-59 -59 -74 -108 -74 -238 0 -100 3 -122 24 -168 22 -49
77 -109 89 -97 3 3 -4 15 -15 28 -56 61 -89 182 -77 280 7 56 8 59 14 27 l6
-35 7 44 c4 24 23 77 42 117 18 41 30 74 25 74 -5 0 -23 -15 -41 -32z"/>
<path d="M1603 2159 c-12 -4 -35 -27 -50 -50 -26 -39 -28 -50 -28 -138 0 -114
19 -164 71 -189 19 -8 36 -13 38 -11 3 3 -7 29 -22 59 -23 47 -27 68 -27 140
0 72 4 93 26 138 28 56 27 64 -8 51z"/>
<path d="M1894 1015 c-5 -30 -6 -51 -1 -46 5 5 11 27 14 50 8 61 31 53 36 -11
l3 -53 2 58 c2 53 1 57 -21 57 -20 0 -24 -7 -33 -55z"/>
<path d="M2020 1029 c-6 -22 -13 -48 -16 -57 -5 -15 -4 -15 6 1 6 9 18 17 27
17 9 0 22 -8 30 -17 13 -16 14 -16 10 -2 -3 10 -11 35 -18 58 -7 23 -16 41
-20 41 -5 0 -13 -18 -19 -41z m30 -10 c0 -10 -6 -19 -14 -19 -9 0 -12 8 -8 25
5 28 22 24 22 -6z"/>
<path d="M2120 1015 c0 -57 10 -66 54 -49 32 12 11 64 -26 64 -29 0 -21 28 10
33 25 4 25 4 -5 6 l-33 1 0 -55z m58 -18 c4 -20 -25 -34 -40 -19 -15 15 -1 44
19 40 10 -2 19 -11 21 -21z"/>
<path d="M2239 1043 c-15 -40 0 -78 31 -78 29 0 46 38 36 79 -9 37 -52 37 -67
-1z m57 -7 c8 -32 -4 -66 -22 -66 -18 0 -34 41 -27 69 8 29 41 27 49 -3z"/>
<path d="M2361 1013 c1 -32 4 -46 6 -31 3 18 11 28 26 30 16 2 22 10 22 28 0
20 -6 26 -27 28 -28 3 -28 3 -27 -55z m49 27 c0 -13 -7 -20 -20 -20 -13 0 -20
7 -20 20 0 13 7 20 20 20 13 0 20 -7 20 -20z"/>
<path d="M2496 1060 c-22 -57 -34 -100 -26 -100 6 0 10 7 10 15 0 18 47 21 53
3 2 -7 2 -2 0 11 -2 13 -10 38 -17 55 -10 22 -15 27 -20 16z m23 -52 c1 -5 -6
-8 -14 -8 -16 0 -19 9 -8 36 6 16 7 16 14 -2 4 -10 8 -22 8 -26z"/>
<path d="M2592 1063 c13 -3 18 -18 21 -56 l3 -52 2 52 c2 40 6 53 20 56 9 3
-1 5 -23 5 -22 0 -32 -2 -23 -5z"/>
<path d="M2699 1043 c-15 -40 0 -78 31 -78 29 0 46 38 36 79 -9 37 -52 37 -67
-1z m57 -7 c8 -32 -4 -66 -22 -66 -18 0 -34 41 -27 69 8 29 41 27 49 -3z"/>
<path d="M2821 1013 c1 -32 4 -46 6 -31 3 18 11 28 26 30 16 2 22 10 22 28 0
20 -6 26 -27 28 -28 3 -28 3 -27 -55z m49 27 c0 -13 -7 -20 -20 -20 -13 0 -20
7 -20 20 0 13 7 20 20 20 13 0 20 -7 20 -20z"/>
<path d="M2932 1018 c-1 -32 0 -58 3 -58 2 0 15 19 27 43 l23 42 6 -45 6 -45
1 58 c1 31 -2 57 -6 57 -5 0 -18 -19 -28 -42 l-19 -43 -6 45 -6 45 -1 -57z"/>
<path d="M3056 1054 c-3 -8 -1 -24 4 -35 8 -13 7 -26 0 -41 -11 -22 -10 -22 4
-4 9 11 16 23 16 28 0 21 19 5 23 -19 2 -16 5 -2 6 30 1 54 0 57 -23 57 -13 0
-27 -7 -30 -16z m44 -14 c0 -11 -6 -20 -14 -20 -18 0 -29 16 -21 30 11 18 35
11 35 -10z"/>
<path d="M1122 818 c-1 -32 0 -58 3 -58 2 0 15 19 27 43 l23 42 6 -45 6 -45 1
58 c1 31 -2 57 -6 57 -5 0 -18 -19 -28 -42 l-19 -43 -6 45 -6 45 -1 -57z"/>
<path d="M1244 856 c-3 -8 -4 -31 -2 -52 2 -31 8 -40 24 -42 11 -2 27 4 34 13
7 9 8 15 2 15 -6 0 -12 -5 -14 -12 -2 -6 -12 -9 -21 -5 -12 4 -17 18 -17 42 0
40 21 55 45 35 13 -11 14 -10 9 4 -8 20 -53 21 -60 2z"/>
<path d="M1350 815 c0 -30 5 -55 10 -55 6 0 10 12 10 28 l1 27 24 -30 c28 -34
34 -27 9 10 -14 22 -14 26 1 49 10 14 13 26 8 26 -5 0 -16 -12 -23 -27 l-14
-28 -4 28 c-6 48 -22 29 -22 -28z"/>
<path d="M1477 850 c3 -14 6 -39 7 -57 1 -17 4 -29 8 -27 11 7 41 94 35 100
-3 4 -9 -5 -13 -20 -8 -33 -17 -33 -32 2 -10 24 -11 24 -5 2z"/>
<path d="M1584 857 c-10 -27 1 -80 18 -91 14 -8 21 -6 35 9 16 17 17 18 1 6
-28 -21 -48 -6 -48 34 0 40 21 55 47 34 14 -12 16 -12 11 1 -6 20 -56 26 -64
7z"/>
<path d="M1698 845 c-17 -37 0 -80 31 -80 14 0 26 7 28 15 4 12 3 13 -5 1 -19
-26 -42 -4 -42 39 0 33 3 40 19 40 11 0 22 -5 24 -10 3 -6 4 -5 3 2 -1 7 -12
14 -24 16 -16 2 -25 -4 -34 -23z"/>
<path d="M1817 862 c6 -4 13 -30 16 -57 l3 -50 2 52 c2 40 6 53 20 56 9 3 1 5
-18 6 -19 0 -30 -3 -23 -7z"/>
<path d="M1920 815 c0 -56 0 -56 28 -53 25 3 27 6 27 53 0 47 -2 50 -27 53
-28 3 -28 3 -28 -53z m50 31 c0 -8 -6 -17 -12 -19 -10 -4 -10 -8 1 -15 17 -12
8 -42 -13 -42 -10 0 -14 12 -14 45 0 38 3 45 19 45 10 0 19 -6 19 -14z"/>
<path d="M2030 815 l0 -55 33 1 c30 2 30 2 5 6 -36 5 -40 43 -5 44 l22 0 -22
9 c-32 13 -29 38 5 43 25 4 25 4 -5 6 l-33 1 0 -55z"/>
<path d="M2130 815 c0 -30 5 -55 10 -55 6 0 10 11 10 25 0 18 5 25 20 25 15 0
20 -7 20 -25 0 -14 5 -25 10 -25 6 0 10 25 10 55 0 30 -4 55 -10 55 -5 0 -10
-11 -10 -25 0 -18 -5 -25 -20 -25 -15 0 -20 7 -20 25 0 14 -4 25 -10 25 -5 0
-10 -25 -10 -55z"/>
<path d="M2263 815 c0 -33 2 -48 4 -32 3 21 10 27 28 27 18 0 25 -6 28 -27 2
-16 4 -1 4 32 0 33 -2 48 -4 33 -3 -22 -10 -28 -28 -28 -18 0 -25 6 -28 28 -2
15 -4 0 -4 -33z"/>
<path d="M2386 855 c-11 -29 -6 -72 9 -85 35 -29 69 14 55 70 -7 30 -54 41
-64 15z m54 -35 c0 -28 -5 -43 -16 -47 -19 -7 -34 13 -34 48 0 30 7 39 32 39
14 0 18 -8 18 -40z"/>
<path d="M2500 815 c0 -30 5 -55 10 -55 6 0 10 22 10 49 0 43 3 50 23 54 16 3
13 5 -10 6 l-33 1 0 -55z"/>
<path d="M2609 843 c-15 -40 0 -78 31 -78 29 0 46 38 36 79 -9 37 -52 37 -67
-1z m57 -7 c8 -32 -4 -66 -22 -66 -18 0 -34 41 -27 69 8 29 41 27 49 -3z"/>
<path d="M2792 818 c-1 -32 0 -58 3 -58 2 0 15 19 27 43 l23 42 6 -45 6 -45 1
58 c1 31 -2 57 -6 57 -5 0 -18 -19 -28 -42 l-19 -43 -6 45 -6 45 -1 -57z"/>
<path d="M2912 815 c1 -33 3 -48 5 -32 3 21 10 27 28 27 18 0 25 -6 28 -27 2
-16 4 -1 4 32 0 33 -2 47 -4 32 -4 -22 -9 -28 -26 -25 -13 2 -24 13 -28 28 -5
16 -7 4 -7 -35z"/>
<path d="M3042 863 c13 -3 18 -18 21 -56 l3 -52 2 52 c2 40 6 53 20 56 9 3 -1
5 -23 5 -22 0 -32 -2 -23 -5z"/>
<path d="M3140 815 l0 -55 33 1 c23 1 26 3 10 6 -27 5 -31 39 -5 46 16 4 16 5
0 6 -27 2 -23 39 5 44 16 3 13 5 -10 6 l-33 1 0 -55z"/>
<path d="M3260 834 c0 -19 -5 -45 -11 -57 -10 -21 -10 -21 5 -3 9 11 16 35 16
53 0 26 4 33 19 33 17 0 21 -8 24 -52 l3 -53 2 58 2 57 -30 0 c-28 0 -30 -3
-30 -36z"/>
<path d="M3380 827 c0 -24 -6 -49 -12 -56 -11 -11 -10 -13 2 -9 10 3 16 20 18
51 3 38 7 47 22 47 16 0 20 -9 23 -52 l3 -53 2 58 2 57 -30 0 c-29 0 -30 -2
-30 -43z"/>
<path d="M3490 815 l0 -55 33 1 c23 1 26 3 10 6 -27 5 -31 39 -5 46 16 4 16 5
0 6 -27 2 -23 39 5 44 16 3 13 5 -10 6 l-33 1 0 -55z"/>
<path d="M3603 815 c0 -33 2 -48 4 -32 5 34 16 34 33 2 7 -14 17 -25 22 -25 5
0 0 13 -12 30 -20 28 -20 31 -4 57 l16 28 -25 -29 -25 -29 -5 29 c-2 16 -4 2
-4 -31z"/>
<path d="M3717 862 c6 -4 13 -30 16 -57 l3 -50 2 52 c2 40 6 53 20 56 9 3 1 5
-18 6 -19 0 -30 -3 -23 -7z"/>
<path d="M3831 829 c-7 -23 -15 -48 -18 -58 -4 -14 -3 -14 10 2 8 9 21 17 30
17 9 0 21 -8 27 -17 10 -16 11 -16 6 -1 -3 9 -10 35 -16 57 -6 23 -14 41 -19
41 -4 0 -13 -18 -20 -41z m31 -4 c4 -17 1 -25 -8 -25 -14 0 -19 31 -7 43 9 10
10 9 15 -18z"/>
</g>
</svg>
